<?xml version="1.0" encoding="utf-8"?>
<!-- Generator: Adobe Illustrator 26.4.1, SVG Export Plug-In . SVG Version: 6.00 Build 0)  -->
<svg version="1.0" id="Layer_1" xmlns="http://www.w3.org/2000/svg" xmlns:xlink="http://www.w3.org/1999/xlink" x="0px" y="0px"
	 width="218.5px" height="45.3px" viewBox="0 0 218.5 45.3" style="enable-background:new 0 0 218.5 45.3;" xml:space="preserve">
<style type="text/css">
	.st0{fill:#FAFBFC;}
	.st1{fill:#A33422;}
	.st2{fill:#212121;}
</style>
<rect y="0" width="218.5" height="45.3"/>
<path class="st0" d="M53.8,15.6v15.9c0,2.7-2.2,4.9-4.9,4.9H8.7c-0.8,0-1.5-0.7-1.5-1.5c0-0.8,0.7-1.5,1.5-1.5h17.9
	c2.5,0,4.6-2,4.6-4.6V15.6c0-3.8,3.1-6.8,6.8-6.8h9C50.8,8.8,53.8,11.9,53.8,15.6z"/>
<path class="st1" d="M77.4,33.5c-0.2,1.1-0.6,2.1-1,3H58.3c0.5-0.9,0.9-1.9,1-3H77.4z"/>
<path class="st2" d="M211.3,35c0,0.8-0.7,1.5-1.5,1.5H80.4c0.5-0.9,0.8-1.9,1-3h128.4C210.7,33.5,211.3,34.1,211.3,35z"/>
<g>
	<g>
		<path class="st0" d="M10.7,14.7h1.5v4.4h5.6v-4.4h1.5v10.8h-1.5v-5h-5.6v5h-1.5V14.7z"/>
		<path d="M39,14.7h7.7v1.9h-5.5V19H46v1.9h-4.8v4.5H39V14.7z"/>
		<path class="st1" d="M71.5,14.7V16h-3.6v9.5h-1.5V16h-3.6v-1.3H71.5z"/>
		<path class="st2" d="M89.3,14.7h1.5v4.4h5.6v-4.4h1.5v10.8h-1.5v-5h-5.6v5h-1.5V14.7z"/>
		<path class="st2" d="M100.2,14.7h7.8V16h-6.4v3.3h5.9v1.2h-5.9v3.6h6.5v1.3h-8V14.7z"/>
		<path class="st2" d="M126.9,14.7h7.8V16h-6.4v3.3h5.9v1.2h-5.9v3.6h6.5v1.3h-8V14.7z"/>
		<path class="st2" d="M136.8,14.7h1.5v9.5h5.4v1.3h-6.9V14.7z"/>
		<path class="st2" d="M161.3,14.7h4.4c1.5,0,2.6,0.5,3.4,1.6c0.7,0.9,1.1,2.2,1.1,3.6c0,1.1-0.2,2.2-0.6,3.1
			c-0.8,1.6-2.1,2.4-3.9,2.4h-4.3V14.7z M165.4,24.2c0.5,0,0.9-0.1,1.2-0.2c0.6-0.2,1-0.6,1.4-1.1c0.3-0.4,0.5-1,0.6-1.7
			c0.1-0.4,0.1-0.8,0.1-1.1c0-1.3-0.3-2.4-0.8-3.1c-0.5-0.7-1.4-1.1-2.6-1.1h-2.6v8.3H165.4z"/>
		<path class="st2" d="M189.7,22c0,0.6,0.2,1.1,0.4,1.5c0.5,0.7,1.3,1.1,2.6,1.1c0.5,0,1-0.1,1.5-0.2c0.9-0.3,1.3-0.8,1.3-1.6
			c0-0.6-0.2-1-0.5-1.3c-0.4-0.2-1-0.5-1.7-0.6l-1.5-0.3c-1-0.2-1.6-0.5-2-0.7c-0.7-0.4-1-1.1-1-2c0-1,0.3-1.8,1-2.4
			c0.7-0.6,1.6-0.9,2.8-0.9c1.1,0,2.1,0.3,2.9,0.8c0.8,0.5,1.2,1.4,1.2,2.6h-1.4c-0.1-0.6-0.2-1-0.5-1.3c-0.4-0.6-1.2-0.8-2.3-0.8
			c-0.9,0-1.5,0.2-1.9,0.5c-0.4,0.4-0.6,0.8-0.6,1.3c0,0.5,0.2,0.9,0.7,1.2c0.3,0.2,0.9,0.4,2,0.6l1.5,0.3c0.7,0.2,1.3,0.4,1.7,0.7
			c0.7,0.5,1,1.2,1,2.2c0,1.2-0.4,2-1.3,2.6c-0.9,0.5-1.9,0.8-3,0.8c-1.3,0-2.4-0.3-3.1-1c-0.8-0.7-1.1-1.6-1.1-2.8H189.7z"/>
		<path class="st2" d="M198.9,14.7h7.8V16h-6.4v3.3h5.9v1.2h-5.9v3.6h6.5v1.3h-8V14.7z"/>
	</g>
</g>
</svg>
