<?xml version="1.0" encoding="utf-8"?>
<!-- Generator: Adobe Illustrator 26.4.1, SVG Export Plug-In . SVG Version: 6.00 Build 0)  -->
<svg version="1.0" id="Layer_1" xmlns="http://www.w3.org/2000/svg" xmlns:xlink="http://www.w3.org/1999/xlink" x="0px" y="0px"
	 width="42.5px" height="42.5px" viewBox="0 0 42.5 42.5" style="enable-background:new 0 0 42.5 42.5;" xml:space="preserve">
<style type="text/css">
	.st0{fill:#E5E5E5;}
</style>
<g>
	<path class="st0" d="M17,20.7c-0.4-0.3-0.9-0.6-1.4-0.8c-0.3-0.1-0.6-0.2-1-0.2l3.4-3l-0.6-1.8H8v2.6l6.1,0.1l-3.3,3l0.8,1.6
		c0.1,0,0.2-0.1,0.3-0.1c0.1,0,0.3-0.1,0.5-0.1c0.2,0,0.4,0,0.6,0c0.4,0,0.7,0,1.1,0.1c0.4,0.1,0.7,0.3,1,0.5
		c0.3,0.2,0.4,0.5,0.4,0.9c0,0.4-0.1,0.8-0.4,1c-0.3,0.3-0.6,0.4-1.1,0.6c-0.4,0.1-0.9,0.2-1.4,0.2c-0.6,0-1.1-0.1-1.5-0.3
		c-0.4-0.2-0.8-0.5-1.1-0.8c-0.3-0.3-0.6-0.6-0.8-0.9l-2.2,1.7c0.6,0.8,1.4,1.5,2.3,2c0.9,0.5,2,0.8,3.3,0.8c1.1,0,2-0.2,2.9-0.5
		c0.9-0.4,1.5-0.9,2-1.5c0.5-0.7,0.8-1.4,0.8-2.3c0-0.5-0.1-1-0.4-1.5C17.8,21.4,17.4,21,17,20.7z"/>
	<path class="st0" d="M26.4,23.7c-0.3-0.2-0.6-0.2-1.1-0.2c-0.2,0-0.5,0-0.7,0.1c-0.2,0.1-0.4,0.1-0.6,0.2c-0.2,0.1-0.3,0.2-0.5,0.3
		c-0.1,0.1-0.1,0.1-0.2,0.2c-0.1-0.1-0.1-0.3-0.2-0.3c-0.2-0.2-0.3-0.3-0.5-0.4c-0.2-0.1-0.4-0.1-0.7-0.1c-0.3,0-0.5,0-0.7,0.1
		s-0.4,0.1-0.6,0.2c-0.2,0.1-0.3,0.2-0.4,0.3c0,0,0,0,0,0l0-0.6h-1.1v4h1.2v-2.1c0-0.1,0-0.2,0.1-0.3s0.1-0.2,0.2-0.3
		c0.1-0.1,0.2-0.2,0.4-0.2c0.1-0.1,0.3-0.1,0.5-0.1c0.2,0,0.4,0,0.6,0.1c0.2,0.1,0.3,0.2,0.3,0.3c0.1,0.1,0.1,0.3,0.1,0.4v2.2h1.2
		v-1.9c0-0.2,0-0.3,0.1-0.4c0.1-0.1,0.2-0.3,0.3-0.4c0.1-0.1,0.3-0.2,0.4-0.2c0.2-0.1,0.3-0.1,0.5-0.1c0.2,0,0.4,0,0.5,0.1
		c0.1,0.1,0.2,0.2,0.3,0.3c0.1,0.1,0.1,0.3,0.1,0.4v2.2h1.2v-2.3c0-0.3-0.1-0.6-0.2-0.8C26.8,24.1,26.6,23.8,26.4,23.7z"/>
	<path class="st0" d="M35.3,24.3c-0.1-0.3-0.3-0.5-0.6-0.6s-0.6-0.2-1.1-0.2c-0.2,0-0.5,0-0.7,0.1c-0.2,0.1-0.4,0.1-0.6,0.2
		c-0.2,0.1-0.3,0.2-0.5,0.3c-0.1,0.1-0.1,0.1-0.2,0.2c-0.1-0.1-0.1-0.3-0.2-0.3c-0.2-0.2-0.3-0.3-0.5-0.4c-0.2-0.1-0.4-0.1-0.7-0.1
		c-0.3,0-0.5,0-0.7,0.1c-0.2,0.1-0.4,0.1-0.6,0.2c-0.2,0.1-0.3,0.2-0.4,0.3c0,0,0,0,0,0l0-0.6h-1.1v4h1.2v-2.1c0-0.1,0-0.2,0.1-0.3
		s0.1-0.2,0.2-0.3c0.1-0.1,0.2-0.2,0.4-0.2c0.1-0.1,0.3-0.1,0.5-0.1c0.2,0,0.4,0,0.6,0.1c0.2,0.1,0.3,0.2,0.3,0.3
		c0.1,0.1,0.1,0.3,0.1,0.4v2.2H32v-1.9c0-0.2,0-0.3,0.1-0.4c0.1-0.1,0.2-0.3,0.3-0.4c0.1-0.1,0.3-0.2,0.4-0.2
		c0.2-0.1,0.3-0.1,0.5-0.1c0.2,0,0.4,0,0.5,0.1c0.1,0.1,0.2,0.2,0.3,0.3c0.1,0.1,0.1,0.3,0.1,0.4v2.2h1.2v-2.3
		C35.4,24.8,35.4,24.6,35.3,24.3z"/>
</g>
</svg>
