<?xml version="1.0" encoding="utf-8"?>
<!-- Generator: Adobe Illustrator 26.4.1, SVG Export Plug-In . SVG Version: 6.00 Build 0)  -->
<svg version="1.0" id="Layer_1" xmlns="http://www.w3.org/2000/svg" xmlns:xlink="http://www.w3.org/1999/xlink" x="0px" y="0px"
	 width="42.5px" height="42.5px" viewBox="0 0 42.5 42.5" style="enable-background:new 0 0 42.5 42.5;" xml:space="preserve">
<style type="text/css">
	.st0{fill:#E5E5E5;}
</style>
<path class="st0" d="M34.4,22.8c-0.2,0.2-0.5,0.3-0.8,0.5c-0.3,0.2-0.7,0.4-1,0.5C32.1,24,31.7,24,31.2,24c-0.5,0-0.9-0.1-1.3-0.2
	c-0.4-0.1-0.8-0.3-1.1-0.5c-0.3-0.2-0.6-0.5-0.8-0.9c-0.2-0.3-0.3-0.7-0.3-1.2c0-0.4,0.1-0.8,0.3-1.2c0.2-0.3,0.4-0.6,0.8-0.9
	c0.3-0.2,0.7-0.4,1.1-0.5c0.4-0.1,0.8-0.2,1.2-0.2c0.5,0,1,0.1,1.4,0.2c0.4,0.1,0.8,0.2,1.1,0.4c0.3,0.2,0.6,0.4,0.8,0.6l1.3-1.8
	c-0.3-0.3-0.7-0.5-1.2-0.7c-0.5-0.2-1-0.4-1.5-0.5c-0.5-0.1-1.1-0.2-1.7-0.2c-0.8,0-1.5,0.1-2.2,0.3c-0.7,0.2-1.3,0.6-1.8,1
	c-0.3,0.3-0.6,0.6-0.8,0.9c0-0.4-0.2-0.7-0.4-1c-0.3-0.3-0.7-0.6-1.3-0.8c-0.6-0.2-1.3-0.3-2.1-0.3H17v6.3l-3.1-6.3h-2.1L7.1,26h2.3
	l0.8-1.7h5.1l0.8,1.7H17h1.5h4.2c0.4,0,0.9,0,1.3-0.1c0.5-0.1,0.9-0.2,1.3-0.4c0.4-0.2,0.7-0.5,0.9-0.9c0.1-0.1,0.1-0.2,0.1-0.3
	c0.2,0.2,0.3,0.4,0.5,0.5c0.5,0.4,1.1,0.8,1.8,1c0.7,0.2,1.5,0.3,2.3,0.3c0.6,0,1.2-0.1,1.8-0.2c0.6-0.2,1.1-0.4,1.5-0.6
	c0.5-0.2,0.8-0.5,1.1-0.7L34.4,22.8z M11.1,22.6l1.1-2.2c0.1-0.2,0.2-0.4,0.3-0.5c0.1-0.2,0.2-0.3,0.2-0.5c0-0.1,0.1-0.2,0.1-0.3
	c0,0.1,0.1,0.2,0.1,0.3c0.1,0.2,0.1,0.3,0.2,0.5c0.1,0.2,0.2,0.4,0.3,0.6l1.1,2.2H11.1z M25.3,21.1c-0.2-0.1-0.4-0.2-0.6-0.2
	c0.3-0.1,0.5-0.2,0.7-0.4C25.3,20.7,25.3,20.9,25.3,21.1z M19.1,18.5h3.1c0.4,0,0.8,0.1,1.1,0.2c0.3,0.1,0.5,0.3,0.5,0.7
	c0,0.2-0.1,0.4-0.2,0.5c-0.1,0.1-0.3,0.2-0.5,0.3c-0.2,0.1-0.5,0.1-0.8,0.1h-3.2V18.5z M24.2,23.6c-0.1,0.2-0.3,0.3-0.6,0.3
	c-0.2,0.1-0.5,0.1-0.8,0.1h-3.6V22h3.5c0.2,0,0.5,0,0.7,0.1c0.3,0.1,0.5,0.2,0.7,0.3c0.2,0.1,0.3,0.4,0.3,0.6
	C24.4,23.3,24.3,23.5,24.2,23.6z"/>
</svg>
