<?xml version="1.0" encoding="utf-8"?>
<!-- Generator: Adobe Illustrator 26.4.1, SVG Export Plug-In . SVG Version: 6.00 Build 0)  -->
<svg version="1.0" id="Layer_1" xmlns="http://www.w3.org/2000/svg" xmlns:xlink="http://www.w3.org/1999/xlink" x="0px" y="0px"
	 width="42.5px" height="42.5px" viewBox="0 0 42.5 42.5" style="enable-background:new 0 0 42.5 42.5;" xml:space="preserve">
<style type="text/css">
	.st0{fill:#C7B830;}
</style>
<g>
	<path class="st0" d="M14.6,14.5c-0.2-0.2-0.5-0.4-0.9-0.5c-0.4-0.1-0.8-0.2-1.3-0.2h-2.4v4.8h2.4c0.5,0,0.9-0.1,1.3-0.2
		c0.4-0.1,0.7-0.3,0.9-0.5c0.2-0.2,0.4-0.5,0.5-0.8c0.1-0.3,0.2-0.6,0.2-0.9c0-0.3-0.1-0.6-0.2-0.9C15.1,14.9,14.9,14.7,14.6,14.5z
		 M11.1,14.8h1.3c0,0,0.1,0,0.1,0L11.1,14.8L11.1,14.8z M12.4,17.5h-1.3v0c0.6,0,1.1,0,1.7,0C12.7,17.5,12.6,17.5,12.4,17.5z"/>
	<path class="st0" d="M35.3,15.3c0-0.2-0.3-0.5-0.6-0.5c-0.7-0.1-1.4,0-2,0c0,1.5,0.2,2.9,0,4.2c-0.6,3.4-3.4,6.2-6.5,6.6
		c-4.1,0.5-7.3-1.1-9-4.7c-0.2-0.4-0.4-0.6-0.8-0.7c0.1-0.1,0.2-0.2,0.3-0.2c0.5-0.5,0.9-1,1.2-1.7c0.3-0.6,0.4-1.3,0.4-2
		c0-0.7-0.1-1.4-0.4-2c-0.3-0.6-0.7-1.2-1.2-1.7c-0.5-0.5-1.2-0.9-1.9-1.1c-0.7-0.3-1.6-0.4-2.5-0.4H8c-0.6,0-1,0.5-1,1v8.4
		c0,0.5,0.3,0.9,0.8,1c0,0.2,0.1,0.3,0.1,0.5c2.4,7.3,9.2,11.2,16.9,9.5C31.9,29.7,36.6,22.5,35.3,15.3z M14.6,20
		c-0.6,0.2-1.3,0.3-2.1,0.3H8v-8.4h4.5c0.8,0,1.5,0.1,2.1,0.3c0.6,0.2,1.1,0.5,1.6,0.9c0.4,0.4,0.7,0.8,1,1.3c0.2,0.5,0.3,1,0.3,1.6
		c0,0.6-0.1,1.1-0.3,1.6c-0.2,0.5-0.5,1-1,1.3C15.7,19.4,15.2,19.8,14.6,20z"/>
	<path class="st0" d="M24.7,23c3,0,5.6-2.6,5.6-5.6c0-3.1-2.5-5.5-5.6-5.5c-3.1,0-5.5,2.4-5.5,5.5C19.2,20.4,21.7,23,24.7,23z
		 M24.7,14.5c1.6,0,2.9,1.3,2.9,2.9c0,1.7-1.2,2.9-2.9,3c-1.6,0-2.9-1.3-2.9-2.9C21.8,15.8,23.1,14.5,24.7,14.5z"/>
</g>
</svg>
