<?xml version="1.0" encoding="utf-8"?>
<!-- Generator: Adobe Illustrator 26.4.1, SVG Export Plug-In . SVG Version: 6.00 Build 0)  -->
<svg version="1.0" id="Layer_1" xmlns="http://www.w3.org/2000/svg" xmlns:xlink="http://www.w3.org/1999/xlink" x="0px" y="0px"
	 width="42.5px" height="42.5px" viewBox="0 0 42.5 42.5" style="enable-background:new 0 0 42.5 42.5;" xml:space="preserve">
<style type="text/css">
	.st0{fill:#E5E5E5;}
</style>
<g>
	<path class="st0" d="M23.3,35.2c0-3.3,0-6.6,0-10c0.9,0,1.7,0,2.5,0c0.3,0,0.7-0.3,0.8-0.5c0.2-1.1,0.3-2.2,0.5-3.4
		c-1.2,0-2.4,0-3.9,0c0.2-1.4,0.1-2.7,0.6-3.8c0.6-1.5,2.3-0.7,3.5-1.1c0-1.1,0-2.1,0-3.4c-1.3,0-2.6-0.2-3.8-0.1
		c-2.7,0.3-4.3,2.2-4.4,5c0,1.1,0,2.1,0,3.3c-1.2,0-2.3,0-3.5,0c0,1.4,0,2.6,0,4c1.1,0,2.2,0,3.4,0c0,3.4,0,6.7,0,10.3
		c-2.5-0.1-5,0-7.4-0.4c-2.6-0.4-4.2-2.4-4.3-5.3C7.1,24,7,18.3,7.2,12.6c0.1-3.2,2.1-5.3,5.3-5.4c6-0.1,12.1-0.1,18.1,0
		c2.3,0,4.3,2.1,4.7,4.4c0.1,0.6,0.2,1.2,0.2,1.8c0,5.1,0,10.3,0,15.4c0,2.2-0.5,4.2-2.6,5.4c-0.9,0.5-2.1,0.8-3.1,0.9
		C27.6,35.3,25.5,35.2,23.3,35.2z"/>
</g>
</svg>
