<?xml version="1.0" encoding="utf-8"?>
<!-- Generator: Adobe Illustrator 26.4.1, SVG Export Plug-In . SVG Version: 6.00 Build 0)  -->
<svg version="1.0" id="Layer_1" xmlns="http://www.w3.org/2000/svg" xmlns:xlink="http://www.w3.org/1999/xlink" x="0px" y="0px"
	 width="42.5px" height="42.5px" viewBox="0 0 42.5 42.5" style="enable-background:new 0 0 42.5 42.5;" xml:space="preserve">
<style type="text/css">
	.st0{fill:#5B843B;}
</style>
<path class="st0" d="M36,15.7c-1.5,0-3,0.1-4.6,0C30,15.6,29,16,28,16.9c-2.7,2.4-5.5,4.8-8.3,7.2c-0.3,0.3-0.7,0.5-1.2,0.8
	c-0.2-0.7-0.3-1.2-0.4-1.6c-0.5-2.2-1-4.3-1.5-6.5c-0.1-0.7-0.5-1.1-1.1-1.1L16,15c0.3-0.5,0.2-1-0.2-1.4c-0.3-0.3-0.7-0.5-1.2-0.8
	c-0.4-0.2-1-0.4-1.5-0.5c-1.1-0.2-2.5-0.2-3.7,0c-0.6,0.1-1.1,0.3-1.6,0.6c-0.5,0.3-0.9,0.7-1.2,1.2c-0.3,0.5-0.5,1.1-0.5,1.7
	c0,0.6,0.1,1.1,0.4,1.5C6.7,17.6,6.8,17.8,7,18c-0.1,0.1-0.2,0.2-0.3,0.3l-0.9,1.6c-0.3,0.5-0.1,1.1,0.3,1.4
	c0.4,0.3,0.9,0.6,1.4,0.8c0.5,0.2,1.1,0.4,1.8,0.6c0.3,0.1,0.6,0.1,0.9,0.1c0.6,2.2,1.2,4.5,1.9,6.7c0.1,0.4,0.8,0.8,1.2,0.8
	c2.3,0,4.5-0.1,6.8-0.3c0.6-0.1,1.3-0.3,1.8-0.7c4.9-4.1,9.9-8.2,14.6-12.5C37.5,15.8,36.4,15.7,36,15.7z M15,20.6
	c-0.4,0.4-0.9,0.7-1.5,1c-0.6,0.2-1.3,0.3-2.1,0.3c-0.7,0-1.3-0.1-1.9-0.2c-0.6-0.1-1.1-0.3-1.6-0.5c-0.5-0.2-0.9-0.5-1.2-0.7
	l0.9-1.6c0.7,0.5,1.3,0.8,2,1c0.7,0.2,1.3,0.3,1.9,0.3c0.3,0,0.5,0,0.8-0.1c0.3-0.1,0.5-0.1,0.7-0.3c0.2-0.1,0.3-0.3,0.3-0.5
	c0-0.1,0-0.2-0.1-0.3c-0.1-0.1-0.2-0.2-0.4-0.2c-0.2-0.1-0.3-0.1-0.6-0.1c-0.2,0-0.4-0.1-0.7-0.1c-0.2,0-0.5,0-0.7-0.1
	c-0.6-0.1-1.1-0.1-1.5-0.3c-0.5-0.1-0.8-0.3-1.2-0.5c-0.3-0.2-0.6-0.5-0.8-0.8c-0.2-0.3-0.3-0.6-0.3-1c0-0.4,0.1-0.8,0.3-1.2
	c0.2-0.3,0.5-0.6,0.9-0.8s0.8-0.4,1.3-0.5c0.5-0.1,1-0.2,1.6-0.2c0.6,0,1.1,0,1.6,0.2c0.5,0.1,0.9,0.2,1.3,0.4
	c0.4,0.2,0.7,0.4,0.9,0.6l-1,1.4c-0.2-0.2-0.5-0.3-0.8-0.5c-0.3-0.1-0.7-0.2-1-0.3c-0.4-0.1-0.7-0.1-1.1-0.1c-0.4,0-0.7,0-1,0.1
	C10,15,9.8,15.1,9.6,15.2c-0.2,0.1-0.2,0.3-0.2,0.5c0,0.2,0.1,0.3,0.2,0.4c0.1,0.1,0.3,0.2,0.5,0.2c0.2,0.1,0.5,0.1,0.7,0.1
	c0.3,0,0.5,0.1,0.8,0.1c0.5,0,1,0.1,1.4,0.2c0.5,0.1,0.9,0.2,1.2,0.4c0.4,0.2,0.7,0.4,0.9,0.7c0.2,0.3,0.3,0.7,0.3,1.2
	C15.5,19.6,15.4,20.2,15,20.6z"/>
</svg>
