<?xml version="1.0" encoding="utf-8"?>
<!-- Generator: Adobe Illustrator 26.4.1, SVG Export Plug-In . SVG Version: 6.00 Build 0)  -->
<svg version="1.0" id="Layer_1" xmlns="http://www.w3.org/2000/svg" xmlns:xlink="http://www.w3.org/1999/xlink" x="0px" y="0px"
	 width="42.5px" height="42.5px" viewBox="0 0 42.5 42.5" style="enable-background:new 0 0 42.5 42.5;" xml:space="preserve">
<style type="text/css">
	.st0{fill:#E5E5E5;}
</style>
<g>
	<path class="st0" d="M35.4,21.3c0,1.4,0,2.8,0,4.2c0,1.1-0.1,2.1-0.2,3.2c-0.3,2.3-1.4,4.1-3.4,5.4c-0.9,0.6-2,1-3.1,1.1
		c-0.7,0.1-1.4,0.2-2.1,0.2c-3.3,0-6.6,0-9.9,0c-0.9,0-1.9-0.1-2.8-0.2c-2.5-0.3-4.5-1.5-5.7-3.7c-0.6-1-0.9-2-1-3.1
		c-0.2-2-0.2-4-0.2-6c0-1.8,0-3.6,0-5.4c0-1.1,0.1-2.1,0.2-3.2c0.3-2.3,1.5-4.2,3.5-5.5c0.9-0.5,1.9-0.9,2.9-1
		c0.7-0.1,1.4-0.2,2-0.2c3.3,0,6.6,0,9.9,0c0.9,0,1.8,0.1,2.7,0.2C31,7.6,33,8.8,34.2,11c0.6,1,0.9,2,1,3.1c0.2,1.8,0.2,3.6,0.2,5.4
		C35.4,20.1,35.4,20.7,35.4,21.3C35.4,21.3,35.4,21.3,35.4,21.3z M9.6,21.3C9.6,21.3,9.6,21.3,9.6,21.3c0,1.2,0,2.4,0,3.6
		c0,1.2,0,2.4,0.2,3.6c0.2,0.9,0.5,1.7,1,2.4c0.9,1.2,2.2,1.7,3.6,1.9c0.9,0.1,1.8,0.1,2.6,0.1c2.4,0,4.7,0,7.1,0
		c1.4,0,2.7,0,4.1-0.2c0.8-0.1,1.6-0.4,2.2-0.8c1.4-0.9,2-2.3,2.2-3.9c0.1-1,0.1-2.1,0.2-3.2c0-2.4,0-4.8,0-7.2c0-1.2,0-2.4-0.2-3.6
		c-0.1-0.8-0.4-1.6-0.9-2.2c-0.9-1.3-2.2-1.9-3.7-2c-0.8-0.1-1.5-0.1-2.3-0.1c-3.3,0-6.6,0-9.9,0c-0.9,0-1.8,0.1-2.6,0.4
		c-1.6,0.5-2.6,1.6-3.2,3.1c-0.3,0.9-0.4,1.9-0.4,2.8C9.6,17.8,9.6,19.5,9.6,21.3z"/>
	<path class="st0" d="M21.3,14c4,0,7.3,3.3,7.3,7.3c0,4-3.3,7.2-7.3,7.2c-4,0-7.3-3.3-7.2-7.3C14,17.2,17.3,14,21.3,14z M21.3,26
		c2.6,0,4.7-2.1,4.7-4.7c0-2.6-2.1-4.7-4.7-4.8c-2.6,0-4.7,2.1-4.7,4.7C16.5,23.9,18.6,26,21.3,26z"/>
</g>
</svg>
