<?xml version="1.0" encoding="utf-8"?>
<!-- Generator: Adobe Illustrator 26.4.1, SVG Export Plug-In . SVG Version: 6.00 Build 0)  -->
<svg version="1.0" id="Layer_1" xmlns="http://www.w3.org/2000/svg" xmlns:xlink="http://www.w3.org/1999/xlink" x="0px" y="0px"
	 width="42.5px" height="42.5px" viewBox="0 0 42.5 42.5" style="enable-background:new 0 0 42.5 42.5;" xml:space="preserve">
<style type="text/css">
	.st0{fill:#E5E5E5;}
</style>
<g>
	<path class="st0" d="M7.1,35.5c0.4-1.2,0.7-2.2,1.1-3.2c0.4-1.2,0.8-2.3,1.2-3.5c0.2-0.5,0.2-0.8-0.1-1.3C4.7,19,9.8,8.8,19.3,7.2
		c7.5-1.3,14.6,3.8,16,11.3c1.3,7.4-3.7,14.5-11,15.9c-3.1,0.6-6,0.2-8.8-1.1c-0.4-0.2-0.9-0.2-1.3-0.1c-2,0.6-4,1.2-6,1.9
		C7.9,35.2,7.6,35.3,7.1,35.5z M10.7,31.9c1.4-0.4,2.7-0.9,3.9-1.2c0.3-0.1,0.7,0,1,0.1c1.7,0.9,3.4,1.5,5.4,1.6
		c7.6,0.4,13.7-6.7,11.8-14.1c-1.2-4.7-4.2-7.8-9-8.7c-4.9-1-9,0.7-11.8,4.8c-2.8,4.1-2.7,8.4-0.2,12.6c0.3,0.5,0.3,0.8,0.1,1.3
		C11.5,29.5,11.1,30.7,10.7,31.9z"/>
	<path class="st0" d="M14.5,17.7c0-1.2,0.4-2.2,1.1-3c0.6-0.7,1.3-0.7,2.1-0.5c0.2,0.1,0.5,0.4,0.6,0.6c0.4,0.9,0.8,1.8,1,2.7
		c0.1,0.4-0.2,0.9-0.5,1.3c-0.8,1-0.8,0.9-0.1,2c1,1.6,2.4,2.8,4.1,3.6c0.4,0.2,0.8,0.2,1.1-0.2c0.1-0.2,0.3-0.3,0.4-0.4
		c1-1.1,1-1.1,2.3-0.4c0.6,0.3,1.1,0.6,1.7,0.9c0.4,0.2,0.5,0.5,0.5,1c-0.3,1.8-2.2,3.1-4.1,2.6C20,26.6,17,23.6,15,19.5
		c-0.2-0.3-0.3-0.7-0.3-1.1C14.6,18.2,14.6,17.8,14.5,17.7z"/>
</g>
</svg>
