<?xml version="1.0" encoding="UTF-8"?>
<svg id="Layer_1" xmlns="http://www.w3.org/2000/svg" version="1.1" viewBox="0 0 84.54 77.36">
  <!-- Generator: Adobe Illustrator 29.8.2, SVG Export Plug-In . SVG Version: 2.1.1 Build 3)  -->
  <defs>
    <style>
      .st0 {
        fill: #231f20;
      }

      .st1 {
        fill: #fff;
      }

      .st2 {
        stroke-width: .5px;
      }

      .st2, .st3 {
        fill: none;
        stroke: #010101;
        stroke-linecap: round;
        stroke-linejoin: round;
      }

      .st3 {
        stroke-width: .25px;
      }
    </style>
  </defs>
  <g>
    <line class="st3" x1="-110.88" y1="186.5" x2="-110.23" y2="186.12"/>
    <line class="st3" x1="-83.26" y1="219.74" x2="-84.12" y2="220.23"/>
    <line class="st3" x1="-111.28" y1="215.38" x2="-112.21" y2="215.91"/>
    <path class="st3" d="M-115.39,186.25c-.06-.07-.16-.11-.28-.13"/>
    <path class="st3" d="M-112.01,203.25c-.19.06-.29.18-.23.3"/>
    <path class="st3" d="M-115.08,196.68s.04.08.08.12c.18.14.36.29.55.43"/>
    <path class="st3" d="M-113.09,185.48s.06.04.09.06c.02.01.03.03.05.04"/>
    <path class="st3" d="M-110.23,186.12c.06-.03.12-.06.19-.08"/>
    <path class="st3" d="M-135.45,201.08c.72-3.67,1.43-7.35,2.15-11.02"/>
    <path class="st3" d="M-112.93,185.61c.05.06.08.12.09.19"/>
    <path class="st3" d="M-114.03,187.8s-.01.03,0,.05"/>
    <path class="st3" d="M-110.04,186.04c.07-.02.13-.04.21-.05.15-.02.31-.02.46,0"/>
    <path class="st3" d="M-130.03,213.08c.72-3.68,1.43-7.35,2.15-11.03"/>
    <path class="st3" d="M-85.48,189.77s.03.02.05.03c.01.01.03.02.04.03"/>
    <path class="st3" d="M-127.79,217.63c.72-3.67,1.43-7.35,2.15-11.02"/>
    <path class="st3" d="M-85.39,189.84c.28.22.57.45.85.67"/>
    <path class="st3" d="M-60.8,225.88c.04.18.02.37-.05.56-.1.27-.3.52-.6.74-.2.15-.41.3-.62.46-2.6,1.9-5.2,3.81-7.8,5.71-.26.19-.53.39-.8.59-.19.14-.41.26-.66.36s-.51.17-.79.23c-.28.05-.57.08-.87.09s-.6-.02-.88-.06c-3.13-.48-6.26-.96-9.41-1.45-.25-.04-.49-.1-.72-.17-.12-.04-.24-.08-.35-.13"/>
    <path class="st3" d="M-81.91,190.94c.14-.06.27-.12.41-.17"/>
    <path class="st3" d="M-71.9,197.88c-.24.24-.49.47-.73.71"/>
    <path class="st3" d="M-72.93,199.65c.14.11.27.21.41.32"/>
    <path class="st3" d="M-67.2,208.35s.03-.01.05-.02"/>
    <path class="st3" d="M-67.14,208.34c.11-.04.22-.06.34-.07.14-.01.28,0,.42.03"/>
    <path class="st3" d="M-68.25,203.44c.32,1.65.64,3.3.97,4.95"/>
    <path class="st3" d="M-82.7,220.72c-.08-.01-.15-.03-.22-.05-.04-.01-.07-.02-.1-.04"/>
    <line class="st3" x1="-86.49" y1="190.66" x2="-87.88" y2="202.85"/>
    <path class="st3" d="M-84.12,220.23c-.14.08-.32.13-.51.14"/>
    <path class="st3" d="M-83,219.56c-.07.05-.14.1-.21.14"/>
    <path class="st3" d="M-84.34,232.78c-.39.03-.79.02-1.18-.04-8.19-1.26-16.36-2.52-24.55-3.78-.25-.04-.49-.1-.72-.17-.23-.08-.45-.17-.64-.28-.08-.05-.14-.09-.19-.12-.02-.02-.04-.03-.06-.04"/>
    <path class="st3" d="M-109.9,216.46s-.03-.02-.05-.03c0,0-.01,0-.02-.01"/>
    <line class="st3" x1="-125.62" y1="206.79" x2="-127.73" y2="218.24"/>
    <path class="st3" d="M-109.99,216.4c-.43-.34-.86-.68-1.29-1.02"/>
    <path class="st3" d="M-111.68,228.35c-.12.03-.25.05-.38.07-.5.08-1.03.08-1.55,0-2.83-.44-5.64-.87-8.47-1.3-.25-.04-.49-.1-.72-.17-.23-.08-.45-.17-.64-.28s-.36-.24-.49-.37c-.13-.13-.23-.27-.3-.42-1.08-2.35-2.16-4.68-3.24-7.03-.09-.2-.17-.39-.25-.59"/>
    <line class="st3" x1="-127.72" y1="218.26" x2="-127.73" y2="218.24"/>
    <line class="st3" x1="-127.73" y1="218.24" x2="-127.74" y2="218.22"/>
    <path class="st3" d="M-127.74,218.22c-.07-.19-.09-.39-.06-.59"/>
    <path class="st3" d="M-124.15,205.23c-.28-.22-.56-.44-.84-.66"/>
    <path class="st3" d="M-127.83,201.94c.15-.23.3-.46.44-.69"/>
    <path class="st3" d="M-128.41,199.69c-.06,0-.12-.02-.17-.03"/>
    <path class="st3" d="M-127.39,201.25c.76-1.19,1.53-2.38,2.29-3.57"/>
    <path class="st3" d="M-67.64,214.17c.79.12,1.57.24,2.36.36"/>
    <path class="st3" d="M-128.86,199.55c-.06-.03-.1-.07-.14-.11-.04-.04-.07-.08-.09-.13"/>
    <line class="st3" x1="-131.17" y1="210.84" x2="-131.19" y2="210.82"/>
    <path class="st3" d="M-69.44,213.89c.6.09,1.2.19,1.81.28"/>
    <line class="st3" x1="-131.19" y1="210.82" x2="-131.2" y2="210.79"/>
    <path class="st3" d="M-131.2,210.79c-.04-.1-.09-.2-.13-.29-.23-.49-.46-.99-.69-1.49-1.12-2.43-2.23-4.85-3.35-7.28-.08-.16-.11-.34-.11-.51,0-.05,0-.1.02-.15"/>
    <line class="st3" x1="-67.53" y1="210" x2="-66.77" y2="214.3"/>
    <path class="st3" d="M-132.97,189.71c.35-.16.69-.32,1.04-.49"/>
    <path class="st3" d="M-133.27,190.24s-.03-.1-.03-.15c0-.01,0-.03,0-.04"/>
    <path class="st3" d="M-129.1,199.32c-.04-.1-.09-.2-.13-.3"/>
    <path class="st3" d="M-128.58,199.66s-.05-.01-.07-.02c-.08-.02-.15-.05-.21-.09"/>
    <path class="st3" d="M-127.53,199.5c-.21.15-.55.23-.88.19"/>
    <path class="st3" d="M-125.34,197.87c-.73.54-1.46,1.09-2.18,1.63"/>
    <path class="st3" d="M-125.12,197.7c-.07.06-.15.11-.22.17"/>
    <path class="st3" d="M-125.09,197.68s-.02.01-.03.02"/>
    <path class="st3" d="M-127.71,202.42s-.08-.07-.11-.11c-.03-.04-.05-.08-.06-.12,0-.04-.01-.08,0-.13"/>
    <path class="st3" d="M-124.2,205.62c.08-.05.13-.11.15-.17"/>
    <line class="st3" x1="-125.2" y1="206.19" x2="-124.2" y2="205.62"/>
    <path class="st3" d="M-125.62,206.79c-.02-.06-.03-.12-.02-.18"/>
    <path class="st3" d="M-121.91,214.62c-.06-.03-.1-.07-.14-.11-.04-.04-.07-.08-.09-.12"/>
    <path class="st3" d="M-121.51,214.75c-.08-.01-.15-.03-.22-.05-.07-.02-.13-.05-.18-.08"/>
    <path class="st3" d="M-113.07,216.05l-8.44-1.3"/>
    <path class="st3" d="M-112.5,216.03s-.07.02-.11.02c-.15.02-.31.02-.46,0"/>
    <path class="st3" d="M-109.97,216.42s-.01-.01-.02-.02"/>
    <path class="st3" d="M-109.5,216.59c-.08-.01-.15-.03-.22-.05-.07-.02-.13-.05-.18-.08"/>
    <path class="st3" d="M-84.63,220.38c-.12,0-.23,0-.35-.01"/>
    <path class="st3" d="M-83.21,219.7s-.03.02-.06.04"/>
    <path class="st3" d="M-83.1,220.59c-.06-.04-.11-.08-.16-.13"/>
    <path class="st3" d="M-73.29,222.17c-3.14-.48-6.27-.96-9.41-1.45"/>
    <path class="st3" d="M-72.37,221.99c-.06.04-.12.08-.19.1-.07.03-.15.05-.23.07-.08.02-.17.02-.25.03-.09,0-.17,0-.26-.02"/>
    <path class="st3" d="M-71.57,221.4c-.27.2-.53.39-.8.59"/>
    <path class="st3" d="M-63.14,215.22c-.21.15-.42.31-.63.46"/>
    <path class="st3" d="M-62.97,214.78s.02.05.02.07"/>
    <path class="st3" d="M-63.2,214.27c.08.17.15.34.23.51"/>
    <path class="st3" d="M-65.83,208.64c.88,1.87,1.75,3.75,2.63,5.62"/>
    <path class="st3" d="M-66.05,208.41c.06.03.1.07.14.11.04.04.07.08.09.12"/>
    <path class="st3" d="M-66.38,208.29c.06.01.12.03.18.05.05.02.1.04.15.07"/>
    <path class="st3" d="M-72.25,209.96s-.02.08,0,.12"/>
    <path class="st3" d="M-65.26,213.08c-.47-1.02-.95-2.04-1.42-3.06"/>
    <path class="st3" d="M-68.42,203.19c.09.07.14.15.16.23,0,0,0,.01,0,.02"/>
    <path class="st3" d="M-72.98,198.92c-.13.13-.18.28-.15.42"/>
    <path class="st3" d="M-72.82,198.76c-.06.05-.11.11-.17.16"/>
    <path class="st3" d="M-72.64,198.59c-.06.06-.12.12-.18.18"/>
    <path class="st3" d="M-71.38,197.37c-.17.17-.35.34-.52.5"/>
    <path class="st3" d="M-76.77,194.49c.95.75,1.9,1.5,2.86,2.26"/>
    <path class="st3" d="M-71.28,196.99s.02.05.02.07"/>
    <path class="st3" d="M-79.96,191.97c1.05.82,2.09,1.65,3.14,2.47"/>
    <path class="st3" d="M-71.47,196.56c.06.14.12.28.19.42"/>
    <path class="st3" d="M-105.8,208.56c.19.03.37,0,.48-.1.11-.09.11-.21,0-.3"/>
    <path class="st3" d="M-73.69,191.8c.74,1.59,1.48,3.17,2.22,4.76"/>
    <path class="st3" d="M-112.24,203.56c.56,1.21,1.12,2.41,1.67,3.62"/>
    <path class="st3" d="M-73.92,191.57c.06.03.1.07.14.11.04.04.07.08.09.12"/>
    <line class="st3" x1="-108.31" y1="200.8" x2="-110.34" y2="189.2"/>
    <path class="st3" d="M-74.32,191.44c.08.01.15.03.22.05.07.02.13.05.18.08"/>
    <path class="st3" d="M-87.31,190.48c-6.59-1.02-13.19-2.05-19.78-3.07"/>
    <path class="st3" d="M-80.32,190.5c2,.31,4,.63,6,.94"/>
    <path class="st3" d="M-71,202.86c-5.04-3.97-10.09-7.94-15.13-11.91"/>
    <path class="st3" d="M-81.08,190.59c.11-.05.23-.08.36-.09.13-.01.27-.01.4,0"/>
    <path class="st3" d="M-75.68,211.93c1.66-2.64,3.31-5.27,4.97-7.91"/>
    <path class="st3" d="M-81.5,190.77c.14-.06.28-.12.42-.18"/>
    <path class="st3" d="M-76.74,212.96c.23.03.46-.04.53-.16.06-.09.11-.19.17-.28.12-.19.24-.39.36-.58"/>
    <path class="st3" d="M-82.78,191.31l.87-.37"/>
    <path class="st3" d="M-114.45,197.23c5.05,3.99,10.11,7.98,15.16,11.98"/>
    <path class="st3" d="M-83.61,191.24c.2.15.56.19.83.07"/>
    <line class="st3" x1="-110.15" y1="190.54" x2="-108.35" y2="200.85"/>
    <path class="st3" d="M-84.54,190.5c.31.25.62.49.93.74"/>
    <line class="st3" x1="-110.38" y1="189.25" x2="-110.37" y2="189.29"/>
    <path class="st3" d="M-85.88,189.64c.08.01.15.03.22.05.07.02.13.05.18.08"/>
    <path class="st3" d="M-112.89,186.02c-.38.59-.76,1.19-1.14,1.78"/>
    <line class="st3" x1="-110.38" y1="189.24" x2="-110.15" y2="190.54"/>
    <path class="st3" d="M-112.95,185.58s.02.02.03.03"/>
    <path class="st3" d="M-115.76,187.05c.13-.2.26-.4.38-.6"/>
    <path class="st3" d="M-113.49,185.35c.08.01.15.03.22.05.07.02.13.05.18.08"/>
    <path class="st3" d="M-118.09,190.16c.2,0,.37-.06.44-.16.63-.98,1.26-1.96,1.89-2.94"/>
    <path class="st3" d="M-115.43,185.04c.65.1,1.29.2,1.94.3"/>
    <path class="st3" d="M-109.37,185.99c7.83,1.22,15.66,2.43,23.49,3.65"/>
    <path class="st3" d="M-119.95,184.34c1.51.23,3.02.47,4.52.7"/>
    <path class="st3" d="M-72.52,199.97c1.37,1.08,2.73,2.15,4.1,3.23"/>
    <path class="st3" d="M-120.46,184.26c.17.03.34.05.51.08"/>
    <path class="st3" d="M-71.73,210.19c.79-.32,1.57-.64,2.36-.95"/>
    <path class="st3" d="M-121.25,184.35c.11-.05.24-.09.37-.1.14-.02.28-.01.42,0"/>
    <path class="st3" d="M-69.37,209.23c.73-.29,1.45-.59,2.18-.88"/>
    <path class="st3" d="M-121.59,184.51c.11-.05.22-.1.34-.15"/>
    <path class="st3" d="M-129.92,197.52c-1.12-2.43-2.23-4.85-3.35-7.28"/>
    <path class="st3" d="M-122.05,184.72c.16-.07.31-.14.47-.21"/>
    <path class="st3" d="M-83.3,220.05c.1-.16.2-.33.31-.49"/>
    <path class="st3" d="M-131.93,189.22c3.29-1.5,6.58-3,9.88-4.5"/>
    <line class="st3" x1="-115.68" y1="186.12" x2="-115.71" y2="186.98"/>
    <path class="st3" d="M-115.68,186.12c-.44-.07-.88-.14-1.32-.21"/>
    <path class="st3" d="M-117,185.92c-.96-.15-1.91-.3-2.87-.45-.15-.02-.31,0-.43.07-.11.06-.15.16-.12.25"/>
    <path class="st3" d="M-120.41,185.79c.18.38.35.77.53,1.15"/>
    <path class="st3" d="M-119.88,186.94c.46,1.01.93,2.02,1.39,3.03"/>
    <path class="st3" d="M-118.5,189.97s.06.09.11.12c.08.04.18.07.29.07"/>
    <path class="st3" d="M-115.38,186.46c.05-.07.03-.14-.02-.21"/>
    <path class="st3" d="M-110.38,189.24s0,0,0,0"/>
    <path class="st3" d="M-108.35,200.85l-.51.8"/>
    <path class="st3" d="M-114.73,196.06c-.11.17-.21.34-.32.5-.02.04-.03.08-.02.12"/>
    <path class="st3" d="M-98.68,209.59c.2.03.39.06.59.09"/>
    <path class="st3" d="M-99.29,209.21c.12.09.24.19.36.28"/>
    <path class="st3" d="M-98.93,209.49s.03.02.05.03c.06.03.12.06.2.07"/>
    <path class="st3" d="M-98.09,209.68c6.61,1.02,13.22,2.03,19.82,3.05"/>
    <path class="st3" d="M-78.27,212.72c.51.08,1.02.16,1.53.24"/>
    <path class="st3" d="M-70.39,203.52s.02-.04.02-.05"/>
    <path class="st3" d="M-70.71,204.02c.11-.17.21-.33.32-.5"/>
    <path class="st3" d="M-86.49,190.66c-.06-.05-.14-.08-.24-.09-.19-.03-.39-.06-.58-.09"/>
    <path class="st3" d="M-86.13,190.95c-.12-.09-.24-.19-.36-.28"/>
    <path class="st3" d="M-87.88,202.85c-6.59-1.03-13.19-2.05-19.78-3.08"/>
    <path class="st3" d="M-108.6,187.17c-.23-.04-.46.03-.54.15"/>
    <path class="st3" d="M-107.09,187.41c-.5-.08-1.01-.16-1.51-.23"/>
    <path class="st3" d="M-107.66,199.78c-.22.34-.43.68-.65,1.02"/>
    <path class="st3" d="M-109.69,188.18c-.22.34-.43.68-.65,1.02"/>
    <line class="st3" x1="-105.33" y1="208.16" x2="-105.38" y2="208.5"/>
    <path class="st3" d="M-111.46,203.33c-.13-.1-.36-.13-.55-.08"/>
    <path class="st3" d="M-110,207.91c.32.05.64.1.96.15"/>
    <path class="st3" d="M-110.57,207.18c.09.19.17.37.26.56.02.05.06.09.11.12.06.03.12.06.2.06"/>
    <path class="st3" d="M-109.03,208.06c1.08.17,2.15.33,3.23.5"/>
    <path class="st3" d="M-76.82,194.44s.03.04.05.05"/>
    <path class="st3" d="M-73.88,196.78s0,0,.01,0"/>
    <path class="st3" d="M-73.92,196.75s.02.02.04.03"/>
    <path class="st3" d="M-73.87,196.79s0,0,0,0"/>
    <path class="st3" d="M-73.86,196.79s.01.01.02.02c.13.07.34.1.51.05"/>
    <line class="st3" x1="-73.1" y1="196.55" x2="-73.13" y2="196.74"/>
    <path class="st3" d="M-73.1,196.55c-.56-1.2-1.12-2.41-1.68-3.61"/>
    <path class="st3" d="M-75.04,192.39c-.04-.09-.15-.16-.31-.18-.32-.05-.64-.1-.96-.15"/>
    <path class="st3" d="M-74.78,192.94c-.09-.18-.17-.37-.26-.55"/>
    <path class="st3" d="M-76.31,192.06c-1.06-.16-2.11-.33-3.17-.49"/>
    <path class="st3" d="M-79.49,191.57c-.18-.03-.37.01-.48.1-.11.09-.11.21,0,.3"/>
    <line class="st3" x1="-64.74" y1="214.22" x2="-64.77" y2="214.39"/>
    <path class="st3" d="M-64.74,214.22c-.18-.38-.35-.76-.53-1.14"/>
    <path class="st3" d="M-69.72,213.76s.04.04.08.06c.06.03.13.05.2.06"/>
    <line class="st3" x1="-112.89" y1="186.02" x2="-112.65" y2="187.35"/>
    <line class="st3" x1="-83.21" y1="219.7" x2="-83.22" y2="219.92"/>
    <line class="st3" x1="-129.1" y1="199.32" x2="-131.19" y2="210.82"/>
    <line class="st3" x1="-75.04" y1="192.39" x2="-75.51" y2="195.49"/>
    <path class="st3" d="M-68.3,203.67c-.66,1.05-1.32,2.11-1.98,3.16"/>
    <path class="st3" d="M-71.26,197.06c.3,1.54.6,3.07.9,4.61"/>
    <path class="st3" d="M-71.26,197.06s0,.08,0,.13c-.02.07-.05.13-.12.19"/>
    <path class="st3" d="M-73.14,199.35c.02.11.09.21.21.3"/>
    <path class="st3" d="M-68.25,203.44c.02.08,0,.16-.05.23"/>
    <path class="st3" d="M-62.95,214.85c.72,3.67,1.44,7.35,2.15,11.02"/>
    <path class="st3" d="M-62.95,214.85c.01.05,0,.11-.01.16-.03.08-.09.15-.17.21"/>
    <path class="st3" d="M-125.64,206.61s.01-.05.03-.08c.02-.04.05-.08.09-.12.04-.04.08-.07.14-.11"/>
    <path class="st3" d="M-124.05,205.45c.02-.07-.01-.15-.09-.21"/>
    <path class="st3" d="M-127.88,202.06s.02-.08.05-.12"/>
    <path class="st3" d="M-113.79,187.89c.97-.46,1.93-.93,2.9-1.39"/>
    <path class="st3" d="M-133.3,190.05s.02-.07.04-.1c.03-.05.06-.09.11-.13s.11-.08.18-.11"/>
    <path class="st3" d="M-70.37,203.47c.01-.06-.01-.13-.08-.19-.18-.14-.36-.28-.54-.43"/>
    <line class="st3" x1="-110.37" y1="189.29" x2="-110.37" y2="189.23"/>
    <path class="st3" d="M-112.83,185.79c.09.51.17,1.01.26,1.52"/>
    <path class="st3" d="M-84.34,232.78c.03-.35.05-.7.08-1.05.3-3.84.6-7.69.9-11.53"/>
    <path class="st3" d="M-83.36,220.2c0-.05.02-.1.06-.15"/>
    <path class="st3" d="M-69.77,213.67s.02.06.05.09"/>
    <path class="st3" d="M-109.22,195.9s.03,0,.05,0"/>
    <path class="st3" d="M-65.28,214.53c.16.02.31,0,.43-.07.11-.07.16-.16.12-.25"/>
    <path class="st3" d="M-66.68,210.02c-.05-.11-.21-.18-.4-.19-.2,0-.37.06-.44.17"/>
    <path class="st3" d="M-73.33,196.86c.19-.06.29-.19.23-.31"/>
    <path class="st3" d="M-110.34,189.2s-.03.03-.04.04"/>
    <line class="st3" x1="-125.39" y1="206.3" x2="-125.2" y2="206.19"/>
    <line class="st3" x1="-71.09" y1="234.18" x2="-90.76" y2="245.54"/>
    <path class="st3" d="M-127.45,215.9c-.67-.53-1.34-1.06-2-1.58-.15-.12-.28-.25-.37-.39-.1-.14-.16-.28-.19-.42-.03-.14-.04-.29,0-.43"/>
    <line class="st3" x1="-112.34" y1="187.2" x2="-105.05" y2="182.99"/>
    <path class="st3" d="M-129.79,211.87c-.22-.08-.43-.17-.6-.27-.19-.11-.36-.24-.49-.37-.13-.13-.22-.26-.29-.39"/>
    <line class="st3" x1="-117.15" y1="189.21" x2="-117" y2="185.92"/>
    <line class="st3" x1="-96.35" y1="188.02" x2="-105.05" y2="182.99"/>
    <path class="st3" d="M-75.89,212.28c-3.99-3.14-7.99-6.29-11.98-9.43"/>
    <line class="st3" x1="-111.67" y1="204.79" x2="-111.46" y2="203.33"/>
    <path class="st3" d="M-127.32,216.01s0,0,0,0"/>
    <line class="st3" x1="-90.76" y1="245.54" x2="-152.07" y2="210.14"/>
    <line class="st3" x1="-79.52" y1="192.31" x2="-79.49" y2="191.57"/>
    <line class="st3" x1="-65.52" y1="214.49" x2="-65.26" y2="213.08"/>
    <line class="st3" x1="-43.74" y1="218.39" x2="-70.74" y2="233.98"/>
    <line class="st3" x1="-66.17" y1="211.14" x2="-65.91" y2="214.43"/>
    <path class="st3" d="M-66.11,214.4s0,.04.01.06"/>
    <path class="st3" d="M-83.26,220.46c-.07-.08-.11-.17-.1-.26"/>
    <line class="st3" x1="-90.76" y1="260" x2="-90.76" y2="245.54"/>
    <path class="st3" d="M-112.21,215.91c-.08.05-.18.09-.29.11"/>
    <path class="st3" d="M-125.37,207.37c-.08-.19-.17-.38-.25-.58"/>
    <path class="st3" d="M-129.23,199.02c-.23-.5-.46-1-.69-1.5"/>
    <path class="st3" d="M-124.98,204.57c-.91-.72-1.82-1.44-2.73-2.16"/>
    <path class="st3" d="M-122.14,214.38c-1.08-2.34-2.16-4.68-3.23-7.02"/>
    <path class="st3" d="M-84.98,220.37c-8.17-1.26-16.35-2.52-24.52-3.77"/>
    <path class="st3" d="M-83.02,220.63s-.06-.03-.08-.04"/>
    <path class="st3" d="M-63.77,215.69c-2.6,1.9-5.2,3.81-7.8,5.71"/>
    <path class="st3" d="M-70.29,206.84c-.65,1.04-1.31,2.09-1.96,3.13"/>
    <path class="st3" d="M-110.38,189.25c-1.45,2.27-2.9,4.54-4.35,6.81"/>
    <line class="st3" x1="-90.76" y1="260" x2="-43.74" y2="232.85"/>
    <line class="st3" x1="-152.07" y1="224.6" x2="-90.76" y2="260"/>
    <line class="st3" x1="-152.07" y1="210.14" x2="-152.07" y2="224.6"/>
    <line class="st3" x1="-152.07" y1="210.14" x2="-135.33" y2="200.47"/>
    <path class="st3" d="M-109.14,187.33c-.18.29-.36.57-.55.86"/>
    <path class="st3" d="M-105.33,208.16c-2.04-1.61-4.09-3.22-6.13-4.83"/>
    <path class="st3" d="M-67.53,210c-.53.84-1.06,1.69-1.59,2.53"/>
    <path class="st3" d="M-69.11,212.53c-.21.34-.43.68-.64,1.02-.02.04-.03.08-.02.12"/>
    <line class="st3" x1="-111.28" y1="215.38" x2="-111.68" y2="228.35"/>
    <line class="st3" x1="-108.6" y1="187.17" x2="-107.66" y2="199.78"/>
    <path class="st3" d="M-72.25,210.08c.06.12.32.19.52.11"/>
    <path class="st3" d="M-114.04,187.84c.02.06.15.09.25.05"/>
    <line class="st3" x1="-43.74" y1="232.85" x2="-43.74" y2="218.39"/>
    <line class="st3" x1="-43.74" y1="218.39" x2="-68.08" y2="204.33"/>
    <path class="st3" d="M-112.83,185.79c.01.08,0,.15-.05.23"/>
    <line class="st2" x1="-43.74" y1="218.39" x2="-68.08" y2="204.33"/>
    <path class="st2" d="M-152.07,210.14l16.74-9.66,2.03-10.42s.02-.07.04-.1c.03-.05.06-.09.11-.13s.11-.08.18-.11"/>
    <path class="st2" d="M-113.09,185.48s.06.04.09.06c.02.01.03.03.05.04"/>
    <line class="st2" x1="-152.07" y1="210.14" x2="-152.07" y2="224.6"/>
    <path class="st2" d="M-112.93,185.61c.05.06.08.12.09.19"/>
    <line class="st2" x1="-152.07" y1="224.6" x2="-90.76" y2="260"/>
    <path class="st2" d="M-85.48,189.77s.03.02.05.03c.01.01.03.02.04.03"/>
    <line class="st2" x1="-90.76" y1="260" x2="-43.74" y2="232.85"/>
    <path class="st2" d="M-85.39,189.84c.28.22.57.45.85.67"/>
    <path class="st2" d="M-81.91,190.94c.14-.06.27-.12.41-.17"/>
    <path class="st2" d="M-68.25,203.44c.32,1.65-.15-.76.17.9"/>
    <path class="st2" d="M-132.97,189.71c.35-.16.69-.32,1.04-.49"/>
    <path class="st2" d="M-105.05,182.99l8.7,5.02,10.47,1.63c.08.01.15.03.22.05.07.02.13.05.18.08"/>
    <path class="st2" d="M-71.28,196.99s.02.05.02.07"/>
    <line class="st2" x1="-112.34" y1="187.2" x2="-105.05" y2="182.99"/>
    <path class="st2" d="M-71.47,196.56c.06.14.12.28.19.42"/>
    <path class="st2" d="M-73.69,191.8c.74,1.59,1.48,3.17,2.22,4.76"/>
    <path class="st2" d="M-73.92,191.57c.06.03.1.07.14.11.04.04.07.08.09.12"/>
    <path class="st2" d="M-74.32,191.44c.08.01.15.03.22.05.07.02.13.05.18.08"/>
    <path class="st2" d="M-80.32,190.5c2,.31,4,.63,6,.94"/>
    <path class="st2" d="M-81.08,190.59c.11-.05.23-.08.36-.09.13-.01.27-.01.4,0"/>
    <path class="st2" d="M-81.5,190.77c.14-.06.28-.12.42-.18"/>
    <path class="st2" d="M-82.78,191.31l.87-.37"/>
    <path class="st2" d="M-112.83,185.79c.09.51.17,1.01.26,1.52"/>
    <path class="st2" d="M-71.26,197.06c.3,1.54.6,3.07.9,4.61l1.94,1.53c.09.07.14.15.16.23,0,0,0,.01,0,.02"/>
    <path class="st2" d="M-131.93,189.22c3.29-1.5,6.58-3,9.88-4.5"/>
    <path class="st2" d="M-83.61,191.24c.2.15.56.19.83.07"/>
    <path class="st2" d="M-84.54,190.5c.31.25.62.49.93.74"/>
    <path class="st2" d="M-122.05,184.72c.16-.07.31-.14.47-.21"/>
    <path class="st2" d="M-121.59,184.51c.11-.05.22-.1.34-.15"/>
    <path class="st2" d="M-121.25,184.35c.11-.05.24-.09.37-.1.14-.02.28-.01.42,0"/>
    <path class="st2" d="M-120.46,184.26c.17.03.34.05.51.08"/>
    <path class="st2" d="M-119.95,184.34c1.51.23,3.02.47,4.52.7"/>
    <path class="st2" d="M-115.43,185.04c.65.1,1.29.2,1.94.3"/>
    <path class="st2" d="M-113.49,185.35c.08.01.15.03.22.05.07.02.13.05.18.08"/>
    <path class="st2" d="M-112.95,185.58s.02.02.03.03"/>
    <line class="st2" x1="-43.74" y1="232.85" x2="-43.74" y2="218.39"/>
    <line class="st3" x1="-127.72" y1="218.26" x2="-125.62" y2="206.79"/>
    <line class="st3" x1="-112.64" y1="187.34" x2="-112.95" y2="185.58"/>
    <line class="st3" x1="-72.4" y1="200.06" x2="-72.64" y2="198.59"/>
    <line class="st3" x1="-87.88" y1="202.85" x2="-86.13" y2="190.95"/>
    <line class="st3" x1="-69.83" y1="209.42" x2="-70.29" y2="206.84"/>
    <line class="st3" x1="-87.88" y1="202.85" x2="-87.31" y2="190.48"/>
    <line class="st3" x1="-67.4" y1="210.71" x2="-67.31" y2="209.86"/>
    <line class="st3" x1="-65.94" y1="214.43" x2="-66.18" y2="211.11"/>
    <line class="st3" x1="-65.89" y1="214.44" x2="-66.15" y2="211.17"/>
    <line class="st3" x1="-125.23" y1="206.21" x2="-124.98" y2="204.57"/>
    <line class="st3" x1="-129.21" y1="208.86" x2="-128.58" y2="199.66"/>
    <line class="st3" x1="-114.54" y1="197.16" x2="-114.73" y2="196.06"/>
    <line class="st3" x1="-75.28" y1="195.68" x2="-74.78" y2="192.94"/>
    <line class="st3" x1="-76.44" y1="194.76" x2="-76.31" y2="192.06"/>
    <line class="st3" x1="-131.2" y1="210.79" x2="-129.1" y2="199.32"/>
    <line class="st3" x1="-131.17" y1="210.84" x2="-129.1" y2="199.32"/>
    <line class="st3" x1="-111.68" y1="228.35" x2="-112.5" y2="216.03"/>
    <line class="st3" x1="-84.34" y1="232.78" x2="-84.63" y2="220.38"/>
    <line class="st3" x1="-68.86" y1="213.98" x2="-69.11" y2="212.53"/>
    <line class="st3" x1="-84.34" y1="232.78" x2="-83.02" y2="220.63"/>
    <line class="st3" x1="-111.68" y1="228.35" x2="-109.97" y2="216.42"/>
    <line class="st3" x1="-71.31" y1="204.98" x2="-71" y2="202.86"/>
    <line class="st3" x1="-107.66" y1="199.78" x2="-107.09" y2="187.41"/>
    <line class="st3" x1="-107.66" y1="199.78" x2="-109.14" y2="187.33"/>
    <line class="st3" x1="-109.69" y1="188.18" x2="-107.66" y2="199.78"/>
    <line class="st3" x1="-127.74" y1="218.22" x2="-125.62" y2="206.79"/>
  </g>
  <g>
    <path class="st0" d="M77.17,33.07c-.07-.72-.49-1.36-1.12-1.72l-3.82-2.2-1.48-.85c-.34-.2-.73-.3-1.12-.3-.24,0-.48.04-.69.11-.07.02-.14.05-.21.08-.08-.69-.49-1.32-1.11-1.69l-17.86-10.28c-.34-.2-.73-.3-1.12-.3-.1,0-.19.01-.34.03l-1.53.23-.11-.74c-.09-.69-.51-1.31-1.11-1.65l-4.58-2.63c-.34-.19-.72-.29-1.11-.29s-.77.1-1.12.3l-6.28,3.62-.53.31c-.54.31-.93.83-1.06,1.4l-.56,2.22-6.01.92c-.75.11-1.39.59-1.71,1.27l-2.53,5.41-.15-.85c-.13-.71-.6-1.32-1.31-1.65-.29-.13-.6-.19-.91-.19-.39,0-.77.1-1.12.3l-7.42,4.27-.63.37c-.63.35-1.05.99-1.13,1.7l-1.48,12.54c-.1.9.33,1.77,1.11,2.21l7.15,4.14c.3.17.63.27.97.29.19.29.44.53.75.71l18.6,10.77c.34.2.73.3,1.12.3.11,0,.22-.01.35-.03l.18-.03c.16.55.53,1.03,1.04,1.32l6.42,3.72c.34.19.72.29,1.1.29s.77-.1,1.13-.3l9.24-5.35.77-.47c.67-.42,1.07-1.14,1.07-1.92v-.5l4.13-.65c.75-.1,1.39-.58,1.72-1.28l.6-1.3c.34.2.73.31,1.13.31s.76-.1,1.15-.31l.37-.22,1.97-1.14,9.55-5.54c.78-.45,1.22-1.32,1.12-2.21l-1.48-12.55ZM46.74,48.13l-1.9,1.1-1.1-.64,3-.46ZM13.02,30.82l1.03-.59-.44.93-.59-.34ZM63.56,29.36l-.8,1.73s-.04.1-.06.15l-4.5,9.75-21.8,3.39-15.39-8.92,5.44-11.63,21.71-3.33,15.4,8.86ZM70.44,33.2l.99.57-1.71.99.72-1.56Z"/>
    <path class="st1" d="M80.13,45.44l-.13-1.11-1.24-10.59-.06-.51-.04-.34c-.12-1.17-.82-2.24-1.87-2.84l-.38-.22-3.43-1.98-1.48-.85c-.56-.32-1.18-.49-1.8-.5-.32-.52-.77-.96-1.31-1.28l-17.88-10.3c-.58-.33-1.22-.5-1.87-.5-.17,0-.32.01-.48.03-.02,0-.06,0-.09.02h-.1c-.3-.81-.89-1.53-1.67-1.98l-4.57-2.62c-.58-.33-1.22-.5-1.87-.5s-1.29.17-1.85.49l-6.29,3.62-.58.34c-.85.49-1.49,1.34-1.73,2.33l-.21.82-.1.42-5.04.77c-1.22.18-2.29.97-2.83,2.12l-1.23,2.64c-.22-.17-.45-.31-.69-.43-.04-.02-.08-.04-.11-.05-.49-.21-.99-.31-1.51-.31-.64,0-1.28.16-1.85.48l-7.43,4.28-.67.39c-1.03.6-1.71,1.65-1.84,2.84l-.1.83-1.25,10.59-.13,1.09c-.17,1.5.55,2.95,1.85,3.69l7.14,4.13c.3.17.61.3.93.39.23.23.49.44.78.61l18.61,10.77c.48.28.99.44,1.51.49.31.43.7.8,1.17,1.07l6.42,3.72c.59.33,1.23.5,1.87.5s1.29-.17,1.86-.49l9.24-5.36.79-.47c.92-.57,1.53-1.44,1.74-2.43l2.96-.46c1.21-.17,2.29-.96,2.83-2.12l.06-.14c.11,0,.21.01.31.01.63,0,1.26-.16,1.81-.47.04-.01.08-.04.11-.06l.39-.23,1.93-1.11,9.56-5.55c1.29-.75,2.02-2.19,1.84-3.68ZM64.87,53.44c-.12.06-.25.1-.38.1-.14,0-.29-.04-.41-.13-.24-.15-.37-.43-.33-.72l.38-3,.04-.3v-.04s-2.77,6.05-2.77,6.05c-.11.23-.32.39-.57.43l-5.05.78c-.21.03-.37.22-.37.43v1.42c0,.27-.14.51-.36.65l-.75.45-9.22,5.34c-.12.07-.25.1-.38.1s-.26-.03-.37-.1l-6.4-3.7c-.23-.14-.38-.38-.38-.65v-.68c0-.21-.17-.37-.37-.37h-.06l-1.4.22s-.07.01-.11.01c-.13,0-.26-.04-.38-.1l-18.59-10.77c-.23-.13-.38-.38-.38-.65v-1.06l.03-.32-.32.69c-.09.2-.26.34-.46.4-.08.03-.15.04-.23.04-.13,0-.26-.04-.37-.1l-7.14-4.13c-.26-.15-.4-.44-.37-.74l.13-1.1,1.25-10.59.1-.86c.03-.24.16-.45.37-.56l.66-.39,7.41-4.26c.11-.07.24-.1.37-.1.11,0,.22.02.32.07.22.1.38.31.43.55l.39,2.21.42,2.4c.02.16.15.24.28.24.1,0,.2-.05.26-.16l4.16-8.89c.1-.23.32-.39.57-.42l6.37-.98c.38-.05.69-.34.79-.71l.06-.27.37-1.47.21-.83c.05-.2.17-.36.35-.46l.55-.33,6.27-3.61c.11-.07.24-.1.37-.1s.26.03.38.1l4.56,2.62c.2.11.34.31.37.54l.13.87.13.9c.04.25.25.42.5.42h.07l2.53-.39s.07-.01.11-.01c.13,0,.26.04.38.1l17.85,10.28c.23.14.38.39.38.66v.78l.29,3.18c.01.08.07.12.13.12.05,0,.1-.02.12-.07l1.16-2.53c.09-.19.25-.34.45-.4.08-.03.16-.04.23-.04.13,0,.26.04.38.1l1.47.85,3.44,1.98.39.22c.21.12.35.33.37.57l.04.36.06.51,1.24,10.58.13,1.12c.04.3-.11.59-.37.74l-9.55,5.54-1.97,1.14-.39.23ZM67.55,37.76l6.23-3.62c.13-.08.21-.23.21-.37,0-.16-.08-.3-.21-.37l-3.62-2.09c-.06-.04-.13-.06-.21-.06-.04,0-.08,0-.13.02-.11.04-.2.12-.25.24l-2.62,5.71c-.08.16-.04.36.1.48.08.08.18.12.28.12.08,0,.15-.02.22-.06ZM48.57,19c-.06-.03-.12-.05-.19-.05h-.05l-22.7,3.49c-.12.02-.23.1-.28.21l-5.95,12.71-.19.39c-.09.18-.02.39.15.49l16.63,9.64c.06.04.13.05.2.05h.06l22.78-3.55c.12-.02.23-.1.28-.21l4.79-10.38s.02-.05.02-.07l1.23-2.66c.08-.18.01-.39-.16-.49l-16.62-9.57ZM61.4,30.45c-.03.07-.06.14-.09.21l-4.13,8.97-20.48,3.18-13.75-7.97,4.52-9.66,20.4-3.13,13.75,7.92-.22.48ZM51.92,45.82h-.07l-11.19,1.73c-.21.03-.37.19-.41.39-.04.2.06.4.24.51l4.11,2.37c.07.05.15.07.24.07.08,0,.17-.02.24-.07l7.09-4.1c.2-.12.29-.36.21-.58-.07-.2-.25-.32-.46-.32ZM34.38,17.75s.04-.01.05-.01l4.1-.63s.06-.02.08-.03l4.45-.68c.15-.03.28-.15.31-.31.03-.16-.05-.31-.18-.39l-3.14-1.81c-.06-.04-.12-.06-.19-.06-.06,0-.13.02-.18.06l-5.49,3.16c-.16.09-.23.28-.17.45.06.15.2.25.36.25ZM16.55,27.12c-.06,0-.13.02-.19.06l-5.75,3.32c-.12.06-.2.19-.2.33s.08.27.2.34l3.29,1.9c.06.04.13.06.2.06.04,0,.08-.01.11-.02.11-.03.2-.1.24-.2l2.46-5.23c.07-.15.03-.34-.09-.46-.08-.06-.17-.1-.27-.1ZM52.38,46.13c-.07-.2-.25-.32-.46-.32h-.07l-11.19,1.73c-.21.03-.37.19-.41.39-.04.2.06.4.24.51l4.11,2.37c.07.05.15.07.24.07.08,0,.17-.02.24-.07l7.09-4.1c.2-.12.29-.36.21-.58ZM73.78,33.41l-3.62-2.09c-.06-.04-.13-.06-.21-.06-.04,0-.08,0-.13.02-.11.04-.2.12-.25.24l-2.62,5.71c-.08.16-.04.36.1.48.08.08.18.12.28.12.08,0,.15-.02.22-.06l6.23-3.62c.13-.08.21-.23.21-.37,0-.16-.08-.3-.21-.37ZM16.82,27.22c-.08-.06-.17-.1-.27-.1-.06,0-.13.02-.19.06l-5.75,3.32c-.12.06-.2.19-.2.33s.08.27.2.34l3.29,1.9c.06.04.13.06.2.06.04,0,.08-.01.11-.02.11-.03.2-.1.24-.2l2.46-5.23c.07-.15.03-.34-.09-.46ZM65.19,28.57l-16.62-9.57c-.06-.03-.12-.05-.19-.05h-.05l-22.7,3.49c-.12.02-.23.1-.28.21l-5.95,12.71-.19.39c-.09.18-.02.39.15.49l16.63,9.64c.06.04.13.05.2.05h.06l22.78-3.55c.12-.02.23-.1.28-.21l4.79-10.38s.02-.05.02-.07l1.23-2.66c.08-.18.01-.39-.16-.49ZM61.4,30.45c-.03.07-.06.14-.09.21l-4.13,8.97-20.48,3.18-13.75-7.97,4.52-9.66,20.4-3.13,13.75,7.92-.22.48ZM43.19,15.7l-3.14-1.81c-.06-.04-.12-.06-.19-.06-.06,0-.13.02-.18.06l-5.49,3.16c-.16.09-.23.28-.17.45.06.15.2.25.36.25.02,0,.04-.01.05-.01l4.1-.63s.06-.02.08-.03l4.45-.68c.15-.03.28-.15.31-.31.03-.16-.05-.31-.18-.39ZM73.78,33.41l-3.62-2.09c-.06-.04-.13-.06-.21-.06-.04,0-.08,0-.13.02-.11.04-.2.12-.25.24l-2.62,5.71c-.08.16-.04.36.1.48.08.08.18.12.28.12.08,0,.15-.02.22-.06l6.23-3.62c.13-.08.21-.23.21-.37,0-.16-.08-.3-.21-.37ZM48.57,19c-.06-.03-.12-.05-.19-.05h-.05l-22.7,3.49c-.12.02-.23.1-.28.21l-5.95,12.71-.19.39c-.09.18-.02.39.15.49l16.63,9.64c.06.04.13.05.2.05h.06l22.78-3.55c.12-.02.23-.1.28-.21l4.79-10.38s.02-.05.02-.07l1.23-2.66c.08-.18.01-.39-.16-.49l-16.62-9.57ZM61.4,30.45c-.03.07-.06.14-.09.21l-4.13,8.97-20.48,3.18-13.75-7.97,4.52-9.66,20.4-3.13,13.75,7.92-.22.48ZM51.92,45.82h-.07l-11.19,1.73c-.21.03-.37.19-.41.39-.04.2.06.4.24.51l4.11,2.37c.07.05.15.07.24.07.08,0,.17-.02.24-.07l7.09-4.1c.2-.12.29-.36.21-.58-.07-.2-.25-.32-.46-.32ZM34.38,17.75s.04-.01.05-.01l4.1-.63s.06-.02.08-.03l4.45-.68c.15-.03.28-.15.31-.31.03-.16-.05-.31-.18-.39l-3.14-1.81c-.06-.04-.12-.06-.19-.06-.06,0-.13.02-.18.06l-5.49,3.16c-.16.09-.23.28-.17.45.06.15.2.25.36.25ZM16.55,27.12c-.06,0-.13.02-.19.06l-5.75,3.32c-.12.06-.2.19-.2.33s.08.27.2.34l3.29,1.9c.06.04.13.06.2.06.04,0,.08-.01.11-.02.11-.03.2-.1.24-.2l2.46-5.23c.07-.15.03-.34-.09-.46-.08-.06-.17-.1-.27-.1Z"/>
    <path class="st1" d="M61.62,29.98l-.22.48c-.03.07-.06.14-.09.21l-4.13,8.97-20.48,3.18-13.75-7.97,4.52-9.66,20.4-3.13,13.75,7.92Z"/>
  </g>
</svg>