<?xml version="1.0" encoding="UTF-8"?>
<svg id="Layer_1" xmlns="http://www.w3.org/2000/svg" version="1.1" viewBox="0 0 84.54 77.36">
  <defs>
    <style>
      .st0 { fill: #231f20; }
      .st1 { fill: #fff; }
      .st2 { stroke-width: .5px; }
      .st2, .st3 { fill: none; stroke: #010101; stroke-linecap: round; stroke-linejoin: round; }
      .st3 { stroke-width: .25px; }
    </style>
  </defs>
  <g>
    <path class="st0" d="M77.17,33.07c-.07-.72-.49-1.36-1.12-1.72l-3.82-2.2-1.48-.85c-.34-.2-.73-.3-1.12-.3-.24,0-.48.04-.69.11-.07.02-.14.05-.21.08-.08-.69-.49-1.32-1.11-1.69l-17.86-10.28c-.34-.2-.73-.3-1.12-.3-.1,0-.19.01-.34.03l-1.53.23-.11-.74c-.09-.69-.51-1.31-1.11-1.65l-4.58-2.63c-.34-.19-.72-.29-1.11-.29s-.77.1-1.12.3l-6.28,3.62-.53.31c-.54.31-.93.83-1.06,1.4l-.56,2.22-6.01.92c-.75.11-1.39.59-1.71,1.27l-2.53,5.41-.15-.85c-.13-.71-.6-1.32-1.31-1.65-.29-.13-.6-.19-.91-.19-.39,0-.77.1-1.12.3l-7.42,4.27-.63.37c-.63.35-1.05.99-1.13,1.7l-1.48,12.54c-.1.9.33,1.77,1.11,2.21l7.15,4.14c.3.17.63.27.97.29.19.29.44.53.75.71l18.6,10.77c.34.2.73.3,1.12.3.11,0,.22-.01.35-.03l.18-.03c.16.55.53,1.03,1.04,1.32l6.42,3.72c.34.19.72.29,1.1.29s.77-.1,1.13-.3l9.24-5.35.77-.47c.67-.42,1.07-1.14,1.07-1.92v-.5l4.13-.65c.75-.1,1.39-.58,1.72-1.28l.6-1.3c.34.2.73.31,1.13.31s.76-.1,1.15-.31l.37-.22,1.97-1.14,9.55-5.54c.78-.45,1.22-1.32,1.12-2.21l-1.48-12.55Z"/>
  </g>
</svg>
