<?xml version="1.0" encoding="utf-8"?>
<!-- Generator: Adobe Illustrator 26.4.1, SVG Export Plug-In . SVG Version: 6.00 Build 0)  -->
<svg version="1.0" id="Layer_1" xmlns="http://www.w3.org/2000/svg" xmlns:xlink="http://www.w3.org/1999/xlink" x="0px" y="0px"
	 width="42.5px" height="42.5px" viewBox="0 0 42.5 42.5" style="enable-background:new 0 0 42.5 42.5;" xml:space="preserve">
<style type="text/css">
	.st0{fill:#E5E5E5;}
</style>
<g>
	<path class="st0" d="M30.8,19.8c-0.9-0.7-2-1.3-3.1-1.8c-0.7-0.2-1.3-0.4-2.2-0.4L33,11l-1.3-4H11v5.7L24.4,13l-7.3,6.6l1.8,3.5
		c0.2,0,0.4-0.2,0.7-0.2c0.2,0,0.7-0.2,1.1-0.2s0.9,0,1.3,0c0.9,0,1.5,0,2.4,0.2c0.9,0.2,1.5,0.7,2.2,1.1s0.9,1.1,0.9,2
		c0,0.9-0.2,1.8-0.9,2.2c-0.7,0.7-1.3,0.9-2.4,1.3c-0.9,0.2-2,0.4-3.1,0.4c-1.3,0-2.4-0.2-3.3-0.7c-0.9-0.4-1.8-1.1-2.4-1.8
		s-1.3-1.3-1.8-2l-4.8,3.7c1.3,1.8,3.1,3.3,5.1,4.4c2,1.1,4.4,1.8,7.3,1.8c2.4,0,4.4-0.4,6.4-1.1c2-0.9,3.3-2,4.4-3.3
		c1.1-1.5,1.8-3.1,1.8-5.1c0-1.1-0.2-2.2-0.9-3.3C32.6,21.4,31.7,20.5,30.8,19.8z"/>
</g>
</svg>
