<?xml version="1.0" encoding="utf-8"?>
<!-- Generator: Adobe Illustrator 26.4.1, SVG Export Plug-In . SVG Version: 6.00 Build 0)  -->
<svg version="1.0" id="Layer_1" xmlns="http://www.w3.org/2000/svg" xmlns:xlink="http://www.w3.org/1999/xlink" x="0px" y="0px"
	 width="42.5px" height="42.5px" viewBox="0 0 42.5 42.5" style="enable-background:new 0 0 42.5 42.5;" xml:space="preserve">
<style type="text/css">
	.st0{fill:#E5E5E5;}
</style>
<path class="st0" d="M35,18.6c-0.3-0.5-0.7-0.8-1.2-1.1c-0.4-0.2-0.7-0.3-1.1-0.5c0.6-0.2,1.1-0.5,1.4-0.9c0.5-0.5,0.7-1.1,0.7-1.8
	c0-0.7-0.2-1.3-0.6-1.8c-0.4-0.5-1-0.9-1.8-1.1c-0.8-0.3-1.7-0.4-2.9-0.4h-7.4v8.7L16.4,8.4h-2.8L7.1,21.5h3l1.2-2.5h7.3l0.8,1.6
	c-1.1,0-2.1,0.2-3.1,0.5c-1,0.3-1.8,0.8-2.5,1.4c-0.7,0.6-1.3,1.3-1.7,2.1c-0.4,0.8-0.6,1.7-0.6,2.7c0,1,0.2,1.9,0.6,2.8
	c0.4,0.8,1,1.6,1.7,2.2c0.7,0.6,1.6,1.1,2.5,1.4c1,0.3,2,0.5,3.1,0.5c0.9,0,1.7-0.1,2.5-0.3c0.8-0.2,1.5-0.5,2.1-0.9
	c0.6-0.3,1.1-0.7,1.5-0.9l-1.4-2.3c-0.3,0.3-0.7,0.5-1.2,0.8c-0.4,0.3-0.9,0.5-1.5,0.7c-0.5,0.2-1.2,0.3-1.9,0.3
	c-0.7,0-1.3-0.1-1.9-0.3c-0.6-0.2-1.2-0.4-1.7-0.8c-0.5-0.3-0.9-0.8-1.2-1.3c-0.3-0.5-0.4-1.1-0.4-1.8c0-0.7,0.1-1.2,0.4-1.7
	c0.3-0.5,0.6-0.9,1.1-1.3c0.5-0.3,1-0.6,1.5-0.8c0.6-0.2,1.1-0.3,1.7-0.3c0.7,0,1.3,0.1,1.9,0.2c0.3,0.1,0.6,0.2,0.9,0.3
	c0.2,0.1,0.4,0.2,0.6,0.3c0,0,0.1,0,0.1,0h1.7H30c0.6,0,1.2-0.1,1.9-0.2c0.6-0.1,1.2-0.3,1.8-0.6c0.5-0.3,1-0.7,1.3-1.2
	c0.3-0.5,0.5-1.2,0.5-2C35.4,19.6,35.3,19,35,18.6z M12.4,16.7l1.6-3.3c0.1-0.3,0.2-0.5,0.4-0.7c0.1-0.3,0.2-0.5,0.3-0.7l0.2-0.6
	c0.1,0.2,0.1,0.3,0.2,0.5c0.1,0.2,0.2,0.5,0.3,0.7c0.1,0.2,0.3,0.5,0.4,0.8l1.6,3.3H12.4z M24.9,13.6h4.6c0.7,0,1.2,0.1,1.7,0.3
	c0.5,0.2,0.7,0.5,0.7,1c0,0.3-0.1,0.5-0.3,0.8c-0.2,0.2-0.4,0.4-0.8,0.5c-0.3,0.1-0.7,0.2-1.1,0.2h-4.8V13.6z M32.2,21
	c-0.2,0.2-0.5,0.4-0.9,0.5c-0.4,0.1-0.8,0.2-1.3,0.2h-5.2v-3.1h5.1c0.4,0,0.8,0,1.2,0.1c0.4,0.1,0.7,0.2,1,0.5
	c0.3,0.2,0.4,0.5,0.4,1C32.5,20.5,32.4,20.8,32.2,21z"/>
</svg>
