<?xml version="1.0" encoding="utf-8"?>
<!-- Generator: Adobe Illustrator 26.4.1, SVG Export Plug-In . SVG Version: 6.00 Build 0)  -->
<svg version="1.0" id="Layer_1" xmlns="http://www.w3.org/2000/svg" xmlns:xlink="http://www.w3.org/1999/xlink" x="0px" y="0px"
	 width="42.5px" height="42.5px" viewBox="0 0 42.5 42.5" style="enable-background:new 0 0 42.5 42.5;" xml:space="preserve">
<style type="text/css">
	.st0{fill:#87333B;}
</style>
<path class="st0" d="M15.9,15.3c-0.1-0.3-0.3-0.5-0.5-0.8c-0.2-0.2-0.5-0.4-0.9-0.5c-0.4-0.1-0.8-0.2-1.3-0.2h-2.4v4.8h2.4
	c0.5,0,0.9-0.1,1.3-0.2c0.4-0.1,0.7-0.3,0.9-0.5c0.2-0.2,0.4-0.5,0.5-0.8c0.1-0.3,0.2-0.6,0.2-0.9C16.1,15.9,16,15.6,15.9,15.3z
	 M11.9,17v-2.2h1.3c0.4,0,0.7,0,0.9,0.1c0.2,0.1,0.3,0.1,0.4,0.2C13.6,15.7,12.7,16.3,11.9,17z M14.6,17.1c-0.1,0.1-0.3,0.2-0.5,0.3
	c0.2-0.2,0.4-0.3,0.6-0.5C14.7,16.9,14.7,17,14.6,17.1z M15.9,15.3c-0.1-0.3-0.3-0.5-0.5-0.8c-0.2-0.2-0.5-0.4-0.9-0.5
	c-0.4-0.1-0.8-0.2-1.3-0.2h-2.4v4.8h2.4c0.5,0,0.9-0.1,1.3-0.2c0.4-0.1,0.7-0.3,0.9-0.5c0.2-0.2,0.4-0.5,0.5-0.8
	c0.1-0.3,0.2-0.6,0.2-0.9C16.1,15.9,16,15.6,15.9,15.3z M11.9,17v-2.2h1.3c0.4,0,0.7,0,0.9,0.1c0.2,0.1,0.3,0.1,0.4,0.2
	C13.6,15.7,12.7,16.3,11.9,17z M14.6,17.1c-0.1,0.1-0.3,0.2-0.5,0.3c0.2-0.2,0.4-0.3,0.6-0.5C14.7,16.9,14.7,17,14.6,17.1z
	 M15.9,15.3c-0.1-0.3-0.3-0.5-0.5-0.8c-0.2-0.2-0.5-0.4-0.9-0.5c-0.4-0.1-0.8-0.2-1.3-0.2h-2.4v4.8h2.4c0.5,0,0.9-0.1,1.3-0.2
	c0.4-0.1,0.7-0.3,0.9-0.5c0.2-0.2,0.4-0.5,0.5-0.8c0.1-0.3,0.2-0.6,0.2-0.9C16.1,15.9,16,15.6,15.9,15.3z M11.9,17v-2.2h1.3
	c0.4,0,0.7,0,0.9,0.1c0.2,0.1,0.3,0.1,0.4,0.2C13.6,15.7,12.7,16.3,11.9,17z M14.6,17.1c-0.1,0.1-0.3,0.2-0.5,0.3
	c0.2-0.2,0.4-0.3,0.6-0.5C14.7,16.9,14.7,17,14.6,17.1z M15.9,15.3c-0.1-0.3-0.3-0.5-0.5-0.8c-0.2-0.2-0.5-0.4-0.9-0.5
	c-0.4-0.1-0.8-0.2-1.3-0.2h-2.4v4.8h2.4c0.5,0,0.9-0.1,1.3-0.2c0.4-0.1,0.7-0.3,0.9-0.5c0.2-0.2,0.4-0.5,0.5-0.8
	c0.1-0.3,0.2-0.6,0.2-0.9C16.1,15.9,16,15.6,15.9,15.3z M11.9,17v-2.2h1.3c0.4,0,0.7,0,0.9,0.1c0.2,0.1,0.3,0.1,0.4,0.2
	C13.6,15.7,12.7,16.3,11.9,17z M14.6,17.1c-0.1,0.1-0.3,0.2-0.5,0.3c0.2-0.2,0.4-0.3,0.6-0.5C14.7,16.9,14.7,17,14.6,17.1z
	 M15.9,15.3c-0.1-0.3-0.3-0.5-0.5-0.8c-0.2-0.2-0.5-0.4-0.9-0.5c-0.4-0.1-0.8-0.2-1.3-0.2h-2.4v4.8h2.4c0.5,0,0.9-0.1,1.3-0.2
	c0.4-0.1,0.7-0.3,0.9-0.5c0.2-0.2,0.4-0.5,0.5-0.8c0.1-0.3,0.2-0.6,0.2-0.9C16.1,15.9,16,15.6,15.9,15.3z M11.9,17v-2.2h1.3
	c0.4,0,0.7,0,0.9,0.1c0.2,0.1,0.3,0.1,0.4,0.2C13.6,15.7,12.7,16.3,11.9,17z M14.6,17.1c-0.1,0.1-0.3,0.2-0.5,0.3
	c0.2-0.2,0.4-0.3,0.6-0.5C14.7,16.9,14.7,17,14.6,17.1z M15.9,15.3c-0.1-0.3-0.3-0.5-0.5-0.8c-0.2-0.2-0.5-0.4-0.9-0.5
	c-0.4-0.1-0.8-0.2-1.3-0.2h-2.4v4.8h2.4c0.5,0,0.9-0.1,1.3-0.2c0.4-0.1,0.7-0.3,0.9-0.5c0.2-0.2,0.4-0.5,0.5-0.8
	c0.1-0.3,0.2-0.6,0.2-0.9C16.1,15.9,16,15.6,15.9,15.3z M11.9,17v-2.2h1.3c0.4,0,0.7,0,0.9,0.1c0.2,0.1,0.3,0.1,0.4,0.2
	C13.6,15.7,12.7,16.3,11.9,17z M14.6,17.1c-0.1,0.1-0.3,0.2-0.5,0.3c0.2-0.2,0.4-0.3,0.6-0.5C14.7,16.9,14.7,17,14.6,17.1z
	 M33.2,14.1c-1.4-1.1-3.1-1.6-4.8-1.9c-2.5-0.3-5-0.1-7.4,0.5c-0.9,0.2-1.7,0.5-2.5,0.8c-0.2-0.4-0.5-0.7-0.8-1
	c-0.5-0.5-1.2-0.9-1.9-1.1c-0.7-0.3-1.5-0.4-2.5-0.4H8.8c-0.6,0-1,0.5-1,1v8.4c0,0.4,0.2,0.7,0.5,0.9c-0.3,0.6-0.6,1.2-0.8,1.9
	C7.1,24,7,24.9,7.1,25.8c0.3,2,1.5,3.5,3.3,4.4c1.9,1,4,1.3,5.9,1.4c2.6,0,4.9-0.4,7.2-1.2c3.3-1.1,6.3-2.8,8.8-5.3
	c1.4-1.5,2.6-3.1,3-5.2C35.8,17.6,35.1,15.6,33.2,14.1z M8.8,12h4.5c0.8,0,1.5,0.1,2.1,0.3c0.6,0.2,1.1,0.5,1.5,0.9
	c0.4,0.4,0.8,0.8,1,1.3c0.2,0.5,0.3,1,0.3,1.6c0,0.6-0.1,1.1-0.3,1.6c-0.2,0.5-0.5,1-1,1.3c-0.4,0.4-0.9,0.7-1.6,0.9
	c-0.6,0.2-1.3,0.3-2.1,0.3H8.8V12z M24.8,28.4c-2.2,0.9-4.6,1.4-7,1.3c-0.6,0-0.8-0.3-0.5-0.9c0.6-1.2,1.3-2.3,2-3.5
	c0.1-0.1,0.3-0.2,0.4-0.2c0.8,0,1.6,0,2.4,0c0.8,0,1.5,0,2.3,0c0.4,0,0.6,0.1,0.6,0.5c0.1,0.5,0.2,1.1,0.3,1.6
	C25.6,27.8,25.4,28.2,24.8,28.4z M20.3,23.7c1-1.7,2-3.3,3-5h0.1c0.4,1.6,0.8,3.3,1.2,5H20.3z M34,19.1c-0.1,1.3-0.6,2.5-1.4,3.5
	c-0.8,1.1-1.7,2.1-2.8,2.9c-0.5,0.4-0.8,0.3-1-0.3c-0.6-2.2-1.1-4.4-1.7-6.6c-0.2-1-0.5-1.9-0.8-2.9c-0.3-0.8-0.8-1.2-1.7-1.2
	c-0.2,0-0.4,0.1-0.5,0.3c-2.8,4.5-5.5,8.9-8.3,13.4c-0.1,0.2-0.2,0.3-0.3,0.4c-0.3,0.4-0.8,0.6-1.3,0.4c-1.1-0.4-2.1-0.9-2.9-1.8
	c-1.4-1.6-1.5-3.5-0.8-5.4c0.1-0.1,0.1-0.3,0.2-0.4h2.4c0.9,0,1.7-0.1,2.5-0.4c0.7-0.3,1.4-0.7,1.9-1.1c0.5-0.5,0.9-1,1.2-1.7
	c0.3-0.6,0.4-1.3,0.4-2c0-0.6-0.1-1.1-0.3-1.6c1-0.4,2.1-0.8,3.1-1c1.3-0.3,2.6-0.5,3.9-0.4c1.8,0,3.6,0.3,5.2,1.2
	C33.1,15.3,34.1,16.8,34,19.1z M15.4,17.8c0.2-0.2,0.4-0.5,0.5-0.8c0.1-0.3,0.2-0.6,0.2-0.9c0-0.3,0-0.6-0.2-0.9
	c-0.1-0.3-0.3-0.5-0.5-0.8c-0.2-0.2-0.5-0.4-0.9-0.5c-0.4-0.1-0.8-0.2-1.3-0.2h-2.4v4.8h2.4c0.5,0,0.9-0.1,1.3-0.2
	C14.9,18.2,15.2,18,15.4,17.8z M11.9,17v-2.2h1.3c0.4,0,0.7,0,0.9,0.1c0.2,0.1,0.3,0.1,0.4,0.2C13.6,15.7,12.7,16.3,11.9,17z
	 M14.8,16.9c0,0.1-0.1,0.1-0.1,0.2c-0.1,0.1-0.3,0.2-0.5,0.3C14.4,17.2,14.6,17,14.8,16.9z M15.9,15.3c-0.1-0.3-0.3-0.5-0.5-0.8
	c-0.2-0.2-0.5-0.4-0.9-0.5c-0.4-0.1-0.8-0.2-1.3-0.2h-2.4v4.8h2.4c0.5,0,0.9-0.1,1.3-0.2c0.4-0.1,0.7-0.3,0.9-0.5
	c0.2-0.2,0.4-0.5,0.5-0.8c0.1-0.3,0.2-0.6,0.2-0.9C16.1,15.9,16,15.6,15.9,15.3z M11.9,17v-2.2h1.3c0.4,0,0.7,0,0.9,0.1
	c0.2,0.1,0.3,0.1,0.4,0.2C13.6,15.7,12.7,16.3,11.9,17z M14.6,17.1c-0.1,0.1-0.3,0.2-0.5,0.3c0.2-0.2,0.4-0.3,0.6-0.5
	C14.7,16.9,14.7,17,14.6,17.1z M15.9,15.3c-0.1-0.3-0.3-0.5-0.5-0.8c-0.2-0.2-0.5-0.4-0.9-0.5c-0.4-0.1-0.8-0.2-1.3-0.2h-2.4v4.8
	h2.4c0.5,0,0.9-0.1,1.3-0.2c0.4-0.1,0.7-0.3,0.9-0.5c0.2-0.2,0.4-0.5,0.5-0.8c0.1-0.3,0.2-0.6,0.2-0.9C16.1,15.9,16,15.6,15.9,15.3z
	 M11.9,17v-2.2h1.3c0.4,0,0.7,0,0.9,0.1c0.2,0.1,0.3,0.1,0.4,0.2C13.6,15.7,12.7,16.3,11.9,17z M14.6,17.1c-0.1,0.1-0.3,0.2-0.5,0.3
	c0.2-0.2,0.4-0.3,0.6-0.5C14.7,16.9,14.7,17,14.6,17.1z M15.9,15.3c-0.1-0.3-0.3-0.5-0.5-0.8c-0.2-0.2-0.5-0.4-0.9-0.5
	c-0.4-0.1-0.8-0.2-1.3-0.2h-2.4v4.8h2.4c0.5,0,0.9-0.1,1.3-0.2c0.4-0.1,0.7-0.3,0.9-0.5c0.2-0.2,0.4-0.5,0.5-0.8
	c0.1-0.3,0.2-0.6,0.2-0.9C16.1,15.9,16,15.6,15.9,15.3z M11.9,17v-2.2h1.3c0.4,0,0.7,0,0.9,0.1c0.2,0.1,0.3,0.1,0.4,0.2
	C13.6,15.7,12.7,16.3,11.9,17z M14.6,17.1c-0.1,0.1-0.3,0.2-0.5,0.3c0.2-0.2,0.4-0.3,0.6-0.5C14.7,16.9,14.7,17,14.6,17.1z
	 M15.9,15.3c-0.1-0.3-0.3-0.5-0.5-0.8c-0.2-0.2-0.5-0.4-0.9-0.5c-0.4-0.1-0.8-0.2-1.3-0.2h-2.4v4.8h2.4c0.5,0,0.9-0.1,1.3-0.2
	c0.4-0.1,0.7-0.3,0.9-0.5c0.2-0.2,0.4-0.5,0.5-0.8c0.1-0.3,0.2-0.6,0.2-0.9C16.1,15.9,16,15.6,15.9,15.3z M11.9,17v-2.2h1.3
	c0.4,0,0.7,0,0.9,0.1c0.2,0.1,0.3,0.1,0.4,0.2C13.6,15.7,12.7,16.3,11.9,17z M14.6,17.1c-0.1,0.1-0.3,0.2-0.5,0.3
	c0.2-0.2,0.4-0.3,0.6-0.5C14.7,16.9,14.7,17,14.6,17.1z"/>
</svg>
