<?xml version="1.0" encoding="utf-8"?>
<!-- Generator: Adobe Illustrator 26.4.1, SVG Export Plug-In . SVG Version: 6.00 Build 0)  -->
<svg version="1.0" id="Layer_1" xmlns="http://www.w3.org/2000/svg" xmlns:xlink="http://www.w3.org/1999/xlink" x="0px" y="0px"
	 width="42.5px" height="42.5px" viewBox="0 0 42.5 42.5" style="enable-background:new 0 0 42.5 42.5;" xml:space="preserve">
<style type="text/css">
	.st0{fill:#87333B;}
</style>
<path class="st0" d="M33.2,14.1c-1.4-1.1-3.1-1.6-4.8-1.9c-2.5-0.4-5-0.2-7.4,0.5c-0.9,0.2-1.8,0.5-2.7,0.8c0.1-0.4,0-0.8-0.3-1.1
	c-0.3-0.3-0.7-0.5-1.2-0.8c-0.5-0.2-1-0.4-1.5-0.5c-1.1-0.2-2.6-0.3-3.7,0c-0.6,0.1-1.2,0.3-1.6,0.6c-0.5,0.3-1,0.7-1.2,1.2
	c-0.3,0.5-0.5,1.1-0.5,1.7c0,0.6,0.1,1.1,0.4,1.5c0.1,0.2,0.3,0.4,0.5,0.6c-0.1,0.1-0.2,0.2-0.3,0.3l-0.9,1.6
	c-0.3,0.5-0.1,1.1,0.3,1.4c0.2,0.1,0.3,0.2,0.5,0.3c-0.6,0.8-1,1.7-1.3,2.7C7.1,24,7,24.9,7.1,25.8c0.3,2,1.5,3.5,3.3,4.4
	c1.9,1,4,1.3,5.9,1.4c2.6,0,4.9-0.4,7.2-1.2c3.3-1.1,6.3-2.8,8.8-5.3c1.4-1.5,2.6-3.1,3-5.2C35.8,17.6,35.1,15.6,33.2,14.1z
	 M8.8,19.2l0.9-1.6c0.7,0.5,1.3,0.8,2,1c0.7,0.2,1.3,0.3,1.9,0.3c0.3,0,0.5,0,0.8-0.1c0.3-0.1,0.5-0.1,0.7-0.3
	c0.2-0.1,0.3-0.3,0.3-0.5c0-0.1,0-0.2-0.1-0.3c-0.1-0.1-0.2-0.2-0.4-0.2c-0.2-0.1-0.3-0.1-0.6-0.1c-0.2,0-0.4-0.1-0.7-0.1
	c-0.2,0-0.5,0-0.7-0.1c-0.6-0.1-1.1-0.1-1.5-0.3c-0.5-0.1-0.9-0.3-1.2-0.5c-0.3-0.2-0.6-0.5-0.8-0.8c-0.2-0.3-0.3-0.6-0.3-1
	c0-0.4,0.1-0.8,0.3-1.2c0.2-0.3,0.5-0.6,0.9-0.8c0.4-0.2,0.8-0.4,1.3-0.5s1-0.2,1.6-0.2c0.6,0,1.1,0,1.6,0.2
	c0.5,0.1,0.9,0.2,1.3,0.4c0.4,0.2,0.7,0.4,0.9,0.6l-1,1.4c-0.2-0.2-0.5-0.3-0.9-0.5c-0.3-0.1-0.7-0.2-1-0.3
	c-0.4-0.1-0.7-0.1-1.1-0.1c-0.4,0-0.7,0-1,0.1c-0.3,0.1-0.5,0.2-0.7,0.3c-0.2,0.1-0.2,0.3-0.2,0.5c0,0.2,0.1,0.3,0.2,0.4
	c0.1,0.1,0.3,0.2,0.5,0.2c0.2,0.1,0.5,0.1,0.8,0.1c0.3,0,0.5,0.1,0.8,0.1c0.5,0,1,0.1,1.4,0.2c0.5,0.1,0.9,0.2,1.2,0.4
	c0.4,0.2,0.7,0.4,0.9,0.7c0.2,0.3,0.3,0.7,0.3,1.2c0,0.6-0.2,1.1-0.5,1.5c-0.4,0.4-0.8,0.7-1.5,1c-0.6,0.2-1.3,0.3-2.2,0.3
	c-0.7,0-1.3-0.1-1.9-0.2C11,20.4,10.5,20.2,10,20C9.6,19.8,9.1,19.5,8.8,19.2z M24.8,28.4c-2.2,0.8-4.6,1.3-7,1.3
	c-0.6,0-0.8-0.3-0.5-0.9c0.6-1.2,1.3-2.3,2-3.5c0.1-0.1,0.3-0.2,0.4-0.2c0.8,0,1.6,0,2.4,0c0.8,0,1.5,0,2.3,0c0.4,0,0.6,0.1,0.6,0.5
	c0.1,0.5,0.2,1.1,0.3,1.6C25.6,27.8,25.4,28.2,24.8,28.4z M20.3,23.7c1-1.7,2-3.3,3-5h0.1c0.4,1.6,0.8,3.3,1.2,5H20.3z M34,19.1
	c-0.1,1.3-0.6,2.5-1.4,3.6c-0.8,1.1-1.7,2.1-2.8,2.9c-0.5,0.4-0.8,0.3-1-0.3c-0.6-2.2-1.1-4.4-1.7-6.6c-0.2-1-0.5-1.9-0.8-2.8
	c-0.3-0.8-0.8-1.2-1.7-1.2c-0.2,0-0.4,0.1-0.5,0.3c-2.8,4.5-5.5,8.9-8.3,13.4c-0.1,0.1-0.2,0.3-0.3,0.4c-0.3,0.4-0.8,0.6-1.3,0.4
	c-1.1-0.4-2.1-0.9-2.9-1.8c-1.4-1.6-1.5-3.5-0.8-5.4c0.1-0.2,0.2-0.3,0.2-0.5c0.2,0,0.3,0.1,0.5,0.1c0.6,0.1,1.3,0.2,2.1,0.2
	c0.9,0,1.8-0.1,2.5-0.4c0.8-0.3,1.5-0.7,1.9-1.3c0.5-0.6,0.8-1.4,0.8-2.2c0-0.7-0.2-1.4-0.5-1.9c0,0,0,0,0,0
	c-0.2-0.3-0.5-0.5-0.8-0.7c1.5-0.8,3.1-1.3,4.8-1.7c1.3-0.3,2.6-0.5,3.9-0.5c1.8,0,3.6,0.3,5.2,1.2C33.1,15.3,34.1,16.8,34,19.1z"/>
</svg>
