<?xml version="1.0" encoding="utf-8"?>
<!-- Generator: Adobe Illustrator 26.4.1, SVG Export Plug-In . SVG Version: 6.00 Build 0)  -->
<svg version="1.0" id="Layer_1" xmlns="http://www.w3.org/2000/svg" xmlns:xlink="http://www.w3.org/1999/xlink" x="0px" y="0px"
	 width="42.5px" height="42.5px" viewBox="0 0 42.5 42.5" style="enable-background:new 0 0 42.5 42.5;" xml:space="preserve">
<style type="text/css">
	.st0{fill:#E5E5E5;}
</style>
<g>
	<path class="st0" d="M23.1,34.8c-2.3,0-4.4-0.3-6.3-1c-1.9-0.6-3.6-1.6-5.1-2.8c-1.5-1.2-2.6-2.6-3.4-4.3c-0.8-1.7-1.2-3.5-1.2-5.6
		c0-2,0.4-3.8,1.3-5.5c0.8-1.7,2-3.1,3.5-4.3c1.5-1.2,3.2-2.1,5.1-2.8s4-1,6.2-1c1.7,0,3.3,0.2,4.8,0.6c1.5,0.4,3,0.9,4.3,1.5
		c1.3,0.6,2.4,1.3,3.2,2L32,16.5c-0.7-0.6-1.6-1.2-2.5-1.7c-0.9-0.5-2-0.9-3.1-1.2c-1.1-0.3-2.4-0.5-3.8-0.5c-1.2,0-2.3,0.2-3.5,0.5
		c-1.1,0.4-2.2,0.9-3.1,1.6c-0.9,0.7-1.7,1.5-2.2,2.6c-0.5,1-0.8,2.2-0.8,3.5c0,1.4,0.3,2.5,0.9,3.6c0.6,1,1.4,1.9,2.3,2.6
		c1,0.7,2.1,1.2,3.3,1.6c1.2,0.4,2.5,0.5,3.8,0.5c1.5,0,2.8-0.2,3.9-0.6c1.1-0.4,2.1-0.9,3-1.4c0.9-0.6,1.6-1.1,2.3-1.6l2.8,4.6
		c-0.8,0.6-1.8,1.2-3,1.9c-1.3,0.7-2.7,1.2-4.2,1.7C26.6,34.6,24.9,34.8,23.1,34.8z"/>
</g>
</svg>
