<?xml version="1.0" encoding="utf-8"?>
<!-- Generator: Adobe Illustrator 26.4.1, SVG Export Plug-In . SVG Version: 6.00 Build 0)  -->
<svg version="1.0" id="Layer_1" xmlns="http://www.w3.org/2000/svg" xmlns:xlink="http://www.w3.org/1999/xlink" x="0px" y="0px"
	 width="42.5px" height="42.5px" viewBox="0 0 42.5 42.5" style="enable-background:new 0 0 42.5 42.5;" xml:space="preserve">
<style type="text/css">
	.st0{fill:#E5E5E5;}
</style>
<g>
	<path class="st0" d="M33.4,18c0.2,0.2,0.3,0.3,0.5,0.5c-0.2,0.1-0.4,0.2-0.6,0.2c-8,0-16,0-24,0c-0.2,0-0.4-0.2-0.6-0.3
		c0.2-0.1,0.3-0.3,0.5-0.4c-0.9-0.7-0.5-1.6-0.2-2.6c0.9-2.5,2.7-4.1,5.1-5c5.1-1.9,10.3-1.9,15.3,0.5c2.2,1,3.6,2.8,4.3,5.1
		C34,16.8,34.1,17.5,33.4,18z M28.3,11.3c-0.1,0.1-0.3,0.2-0.3,0.3c-0.1,0.4,0.7,0.9,1.2,0.9c0.2,0,0.5-0.2,0.5-0.4
		C29.8,11.8,29,11.3,28.3,11.3z M18.1,10.3c-0.5-0.3-1.5-0.2-1.8,0.3c0,0.1,0.1,0.4,0.2,0.4C17,11.3,17.8,10.9,18.1,10.3z M13.7,12
		c0.7,0.3,1.5,0.1,1.8-0.5C14.9,11.1,14.1,11.3,13.7,12z M19.1,12.7c0.3-0.3,0.6-0.5,0.8-0.7c-0.2-0.2-0.5-0.4-0.7-0.4
		c-0.3,0-0.5,0.3-0.8,0.5C18.6,12.2,18.8,12.4,19.1,12.7z M24.8,11.3c0.3-0.2,0.5-0.3,0.7-0.5c-0.3-0.2-0.6-0.4-0.9-0.5
		c-0.2,0-0.4,0.2-0.7,0.3C24.2,10.8,24.5,11,24.8,11.3z M21.5,11.2c0.3-0.2,0.5-0.3,0.7-0.5c-0.2-0.2-0.5-0.4-0.7-0.4
		c-0.2,0-0.4,0.2-0.7,0.4C21,10.9,21.2,11,21.5,11.2z"/>
	<path class="st0" d="M9.4,27.9c-0.4,0-0.8,0-1.2,0c-0.5,0.1-0.7-0.1-0.9-0.5c0-0.1-0.1-0.3-0.1-0.4c-0.4-1.3-0.3-1.5,1.1-1.9
		c0.3-0.1,0.6-0.1,0.8-0.2c0.6-0.2,1.1-0.3,1.5,0.3c0.2,0.3,0.7,0.4,1.1,0.4c1.3,0,2.6,0,3.8-0.3c2.4-0.6,4.2,0.3,5.9,1.8
		c1,0.9,1.2,0.9,1.7-0.4c0.1-0.2,0.2-0.4,0.2-0.6c0.3-0.9,0.6-1.1,1.5-0.8c0.9,0.4,1.8,0.9,2.7,1.3c0.3,0.2,0.5,0.4,0.8,0.6
		c1.1,0.8,1.1,0.8,1.7-0.4c0.2-0.4,0.4-0.7,0.9-0.5c1.2,0.4,1.4,0.3,1.7-1c0-0.1,0-0.2,0.1-0.3c1,0,1.8,0.4,2.3,1.2
		c0.3,0.4,0.1,1.2,0.1,1.7c0,0.4-0.4,0.5-0.7,0.2c-0.4-0.4-0.9-0.3-1.4-0.2c1.3,1.2,0.4,3.9-1.1,4.3c-1.2,0.3-2.4,0.7-3.6,0.8
		c-5.1,0.5-10.3,0.5-15.4-0.1c-0.8-0.1-1.7-0.3-2.5-0.6c-1.4-0.5-2.2-2.1-1.9-3.5C8.8,28.5,9.2,28.3,9.4,27.9z"/>
	<path class="st0" d="M34.6,23.1c-3,0.5-6,0.2-8.9,0.3c-5.4,0-10.8,0-16.1,0c-0.6,0-1.2-0.1-2-0.1C7.8,22.6,8,22,8.2,21.3
		C8.3,21,8.4,20.8,8,20.6c-0.4-0.2-0.3-0.5,0.1-0.5c0.5-0.1,1-0.2,1.4-0.1c1.1,0.2,2.1,0.6,3.1,0.9c0.5,0.2,1,0.4,1.5,0.6
		c1.1,0.4,2,0.2,2.6-0.5c0.6-0.7,1.4-0.9,2.4-1c1.5-0.1,2.9,0.1,4.3,0.6c1.2,0.4,2.3,0.6,3.5-0.2c0.3-0.2,0.9-0.3,1.3-0.3
		c1.2,0.1,2.4,0.3,3.6,0.5c0.4,0.1,0.8,0.2,1.2,0.3c0.6,0,0.9,0.2,1.1,0.7C34.3,22.1,34.5,22.6,34.6,23.1z"/>
</g>
</svg>
