<?xml version="1.0" encoding="utf-8"?>
<!-- Generator: Adobe Illustrator 26.4.1, SVG Export Plug-In . SVG Version: 6.00 Build 0)  -->
<svg version="1.0" id="Layer_1" xmlns="http://www.w3.org/2000/svg" xmlns:xlink="http://www.w3.org/1999/xlink" x="0px" y="0px"
	 width="42.5px" height="42.5px" viewBox="0 0 42.5 42.5" style="enable-background:new 0 0 42.5 42.5;" xml:space="preserve">
<style type="text/css">
	.st0{fill:#E5E5E5;}
</style>
<g>
	<path class="st0" d="M8.5,11.7c8.5,0,17,0,25.8,0c-0.5,0.5-0.9,0.8-1.2,1.1c-3.5,3-6.9,6.1-10.4,9.1c-1.1,1-1.6,1-2.7,0
		c-3.6-3.1-7.2-6.3-10.8-9.5c-0.2-0.2-0.4-0.4-0.6-0.6C8.5,11.8,8.5,11.8,8.5,11.7z"/>
	<path class="st0" d="M34,30.8c-8.5,0-17,0-25.5,0c0-0.1,0-0.1-0.1-0.2c3.2-2.8,6.5-5.7,9.7-8.5c1,0.6,1.7,1.8,3.1,1.8
		c1.4,0,2.1-1.1,3.1-1.8c3.2,2.8,6.5,5.7,9.7,8.5C34.1,30.7,34,30.8,34,30.8z"/>
	<path class="st0" d="M35.2,30c-3.4-3-6.7-5.9-10-8.8c3.3-2.9,6.6-5.7,10-8.8c0.1,0.6,0.2,1.1,0.2,1.5c0,4.8,0,9.6,0,14.4
		C35.4,28.9,35.3,29.4,35.2,30z"/>
	<path class="st0" d="M7.3,12.5c3.4,3,6.7,5.8,10,8.7C14,24.2,10.7,27,7.3,30c-0.1-0.6-0.2-1-0.2-1.4c0-4.9,0-9.8,0-14.7
		C7.1,13.5,7.2,13.1,7.3,12.5z"/>
</g>
</svg>
