<?xml version="1.0" encoding="utf-8"?>
<!-- Generator: Adobe Illustrator 26.4.1, SVG Export Plug-In . SVG Version: 6.00 Build 0)  -->
<svg version="1.0" id="Layer_1" xmlns="http://www.w3.org/2000/svg" xmlns:xlink="http://www.w3.org/1999/xlink" x="0px" y="0px"
	 width="42.5px" height="42.5px" viewBox="0 0 42.5 42.5" style="enable-background:new 0 0 42.5 42.5;" xml:space="preserve">
<style type="text/css">
	.st0{fill:#5B843B;}
</style>
<g>
	<path class="st0" d="M13.3,15.7c-0.2-0.2-0.5-0.4-0.9-0.5C12.1,15,11.6,15,11.1,15H8.7v4.8h2.4c0.5,0,0.9-0.1,1.3-0.2
		c0.4-0.1,0.7-0.3,0.9-0.5c0.2-0.2,0.4-0.5,0.5-0.8C14,18,14,17.7,14,17.4c0-0.3-0.1-0.6-0.2-0.9C13.7,16.2,13.5,15.9,13.3,15.7z"/>
	<path class="st0" d="M36,15.7c-1.5,0-3,0.1-4.6,0C30,15.6,29,16,28,16.9c-2.7,2.5-5.5,4.8-8.3,7.2c-0.3,0.3-0.7,0.5-1.2,0.8
		c-0.2-0.7-0.3-1.2-0.4-1.6c-0.4-1.6-0.7-3.1-1-4.7c0.1-0.4,0.2-0.8,0.2-1.2c0-0.7-0.1-1.4-0.4-2c-0.3-0.6-0.7-1.2-1.2-1.7
		c-0.5-0.5-1.2-0.9-1.9-1.1c-0.7-0.3-1.6-0.4-2.5-0.4H6.7c-0.6,0-1,0.5-1,1v8.4c0,0.6,0.5,1.1,1,1.1h3.4c0.6,2.3,1.3,4.6,1.9,6.9
		c0.1,0.4,0.8,0.8,1.2,0.8c2.3,0,4.5-0.1,6.8-0.3c0.6,0,1.3-0.3,1.8-0.7c4.9-4.2,9.9-8.2,14.6-12.5C37.5,15.8,36.4,15.7,36,15.7z
		 M15.8,19c-0.2,0.5-0.5,1-1,1.3c-0.4,0.4-1,0.7-1.6,0.9c-0.6,0.2-1.3,0.3-2.1,0.3H6.7v-8.4h4.5c0.8,0,1.5,0.1,2.1,0.3
		c0.6,0.2,1.1,0.5,1.6,0.9c0.4,0.4,0.7,0.8,1,1.3c0.2,0.5,0.3,1,0.3,1.6C16.1,17.9,16,18.5,15.8,19z"/>
</g>
</svg>
